{
	"asset":{
		"generator":"Khronos glTF Blender I/O v4.5.48",
		"version":"2.0"
	},
	"extensionsUsed":[
		"KHR_materials_clearcoat",
		"KHR_materials_transmission",
		"KHR_materials_emissive_strength",
		"KHR_materials_specular",
		"KHR_materials_ior"
	],
	"scene":0,
	"scenes":[
		{
			"name":"Scene",
			"nodes":[
				47
			]
		}
	],
	"nodes":[
		{
			"mesh":0,
			"name":"B\u00e9zierCurve.001",
			"translation":[
				-2.7293100357055664,
				1.965911865234375,
				0.267969012260437
			]
		},
		{
			"mesh":1,
			"name":"B\u00e9zierCurve.003",
			"translation":[
				0,
				3.7499990463256836,
				-6.007871150970459
			]
		},
		{
			"mesh":2,
			"name":"B\u00e9zierCurve.004",
			"translation":[
				0,
				0,
				-5.006539344787598
			]
		},
		{
			"mesh":3,
			"name":"B\u00e9zierCurve.005",
			"translation":[
				0,
				1.8381319046020508,
				4.176322937011719
			]
		},
		{
			"mesh":4,
			"name":"B\u00e9zierCurve.006",
			"translation":[
				2.7293100357055664,
				1.965912103652954,
				0.2742532789707184
			]
		},
		{
			"mesh":5,
			"name":"B\u00e9zierCurve.012",
			"translation":[
				0,
				3.7499990463256836,
				-6.007871150970459
			]
		},
		{
			"mesh":6,
			"name":"Cube.009",
			"rotation":[
				-1,
				0,
				0,
				2.5661850600045e-07
			],
			"scale":[
				-9.041267395019531,
				-0.011001012288033962,
				-0.18098591268062592
			],
			"translation":[
				0.002527565462514758,
				0.008687466382980347,
				0.28010284900665283
			]
		},
		{
			"mesh":7,
			"name":"Cube.010",
			"rotation":[
				-1,
				0,
				0,
				2.5661850600045e-07
			],
			"scale":[
				-9.041267395019531,
				-0.01760161854326725,
				-0.28957292437553406
			],
			"translation":[
				0.002527565462514758,
				0.015718728303909302,
				0.4458819627761841
			]
		},
		{
			"mesh":8,
			"name":"Cube.011",
			"rotation":[
				-1,
				0,
				0,
				2.5661850600045e-07
			],
			"scale":[
				-9.041267395019531,
				-0.01760161854326725,
				-0.28957292437553406
			],
			"translation":[
				0.002527565462514758,
				-0.08193755149841309,
				0.4794579744338989
			]
		},
		{
			"children":[
				6,
				7,
				8
			],
			"mesh":9,
			"name":"B\u00e9zierCurve.013",
			"scale":[
				1.0433343648910522,
				7.999995708465576,
				2.8652570247650146
			],
			"translation":[
				-0.002636962104588747,
				1.0555009841918945,
				-5.649341106414795
			]
		},
		{
			"mesh":10,
			"name":"Cube",
			"scale":[
				1.3461941480636597,
				0.6894028186798096,
				0.3183221220970154
			],
			"translation":[
				0,
				2.0292446613311768,
				0.4375
			]
		},
		{
			"mesh":11,
			"name":"Cube.004",
			"translation":[
				0,
				3.7499990463256836,
				0
			]
		},
		{
			"mesh":12,
			"name":"Cube.006",
			"translation":[
				1.4094027280807495,
				1.75,
				-5.493392467498779
			]
		},
		{
			"mesh":13,
			"name":"Cube.007",
			"translation":[
				-1.4094055891036987,
				1.75,
				-5.494359493255615
			]
		},
		{
			"mesh":14,
			"name":"Cube.012",
			"scale":[
				1.3461941480636597,
				0.6894028186798096,
				0.3183221220970154
			],
			"translation":[
				0,
				2.0292446613311768,
				-3.375
			]
		},
		{
			"mesh":15,
			"name":"Cube.013",
			"translation":[
				0,
				3.7499990463256836,
				0
			]
		},
		{
			"mesh":16,
			"name":"Cube.017",
			"scale":[
				1.2081341743469238,
				1.134134292602539,
				0.6706498265266418
			],
			"translation":[
				0,
				4.374999046325684,
				2.2275309562683105
			]
		},
		{
			"mesh":17,
			"name":"Cylinder",
			"rotation":[
				0,
				0,
				0.13055047392845154,
				0.9914417266845703
			],
			"scale":[
				1.4360054731369019,
				1.4632307291030884,
				0.06490513682365417
			],
			"translation":[
				0,
				0,
				0.3255482614040375
			]
		},
		{
			"children":[
				17
			],
			"mesh":18,
			"name":"Cylinder.001",
			"scale":[
				0.6974093317985535,
				0.6824468970298767,
				15.40710163116455
			],
			"translation":[
				1.430511474609375e-05,
				-0.12498736381530762,
				-0.13222026824951172
			]
		},
		{
			"mesh":19,
			"name":"Circle.003",
			"scale":[
				1.4342502355575562,
				0.4926636815071106,
				1.5442677736282349
			],
			"translation":[
				0,
				-7.650817394256592,
				14.285200119018555
			]
		},
		{
			"mesh":20,
			"name":"Cylinder.003",
			"rotation":[
				0.3599967360496521,
				0,
				0,
				0.9329535961151123
			],
			"scale":[
				0.6835017800331116,
				1.4234914779663086,
				0.47041022777557373
			],
			"translation":[
				0,
				-0.42574143409729004,
				-1.8563406467437744
			]
		},
		{
			"mesh":21,
			"name":"Cylinder.004",
			"scale":[
				0.6939972043037415,
				0.9422056674957275,
				0.6455779671669006
			],
			"translation":[
				0,
				-0.6027944087982178,
				4.590970993041992
			]
		},
		{
			"mesh":22,
			"name":"Cylinder.007",
			"scale":[
				2.0136773586273193,
				0.8357376456260681,
				2.4320921897888184
			],
			"translation":[
				0,
				0.25025177001953125,
				0
			]
		},
		{
			"mesh":23,
			"name":"Sphere.007",
			"rotation":[
				0,
				0.2590123414993286,
				0,
				0.9658740162849426
			],
			"scale":[
				0.15875479578971863,
				0.5015837550163269,
				0.12636521458625793
			]
		},
		{
			"children":[
				23
			],
			"mesh":24,
			"name":"Cylinder.008",
			"scale":[
				9.295928001403809,
				7.637333869934082,
				10.378629684448242
			],
			"translation":[
				0,
				0.8133163452148438,
				0
			]
		},
		{
			"mesh":25,
			"name":"Cylinder.009",
			"scale":[
				2.0136773586273193,
				0.8357376456260681,
				2.4320921897888184
			],
			"translation":[
				0,
				1.3763809204101562,
				0
			]
		},
		{
			"children":[
				22,
				24,
				25
			],
			"mesh":26,
			"name":"Cylinder.006",
			"scale":[
				0.38384976983070374,
				0.12304232269525528,
				0.3968021869659424
			],
			"translation":[
				0,
				2.224684238433838,
				0
			]
		},
		{
			"children":[
				19,
				20,
				21,
				26
			],
			"mesh":27,
			"name":"Cylinder.002",
			"scale":[
				0.6972284317016602,
				2.0297820568084717,
				0.6475569605827332
			],
			"translation":[
				0,
				8.374999046325684,
				-1.75
			]
		},
		{
			"mesh":28,
			"name":"Elbow Joint",
			"rotation":[
				0,
				0.7071067094802856,
				0,
				0.7071068286895752
			],
			"translation":[
				-0.723770022392273,
				6.273810386657715,
				-1.9375004768371582
			]
		},
		{
			"mesh":29,
			"name":"Circle.001",
			"rotation":[
				0,
				0,
				-0.7071067094802856,
				0.7071068286895752
			],
			"scale":[
				0.11561521142721176,
				0.459804505109787,
				8.85721206665039
			],
			"translation":[
				0.032210126519203186,
				0.0004890427808277309,
				-2.519306182861328
			]
		},
		{
			"mesh":30,
			"name":"Circle.002",
			"scale":[
				0.9683162569999695,
				1,
				0.9683164358139038
			],
			"translation":[
				-0.024391600862145424,
				-0.4301811158657074,
				-0.17123794555664062
			]
		},
		{
			"mesh":31,
			"name":"Circle.004",
			"scale":[
				1.0976054668426514,
				1,
				0.9683164358139038
			],
			"translation":[
				0.01558817457407713,
				-0.0216835867613554,
				-0.0934906005859375
			]
		},
		{
			"mesh":32,
			"name":"Circle.006",
			"rotation":[
				0,
				0,
				-0.7071067094802856,
				0.7071068286895752
			],
			"scale":[
				0.09417605400085449,
				0.36149394512176514,
				6.965365886688232
			],
			"translation":[
				-0.04937969520688057,
				-0.02179546281695366,
				2.2331924438476562
			]
		},
		{
			"children":[
				29,
				30,
				31,
				32
			],
			"mesh":33,
			"name":"Circle",
			"rotation":[
				0,
				0,
				-0.7071067094802856,
				0.7071068286895752
			],
			"scale":[
				2.754500150680542,
				4.14687967300415,
				0.5016166567802429
			],
			"translation":[
				0.027324438095092773,
				-0.4203019142150879,
				0
			]
		},
		{
			"children":[
				33
			],
			"mesh":34,
			"name":"Cube.001",
			"scale":[
				0.5067518353462219,
				0.28174248337745667,
				0.16890665888786316
			],
			"translation":[
				1.4499999284744263,
				0.22544145584106445,
				0.7999997138977051
			]
		},
		{
			"mesh":35,
			"name":"Torus",
			"rotation":[
				0,
				0,
				-0.7071067094802856,
				0.7071068286895752
			],
			"scale":[
				0.5334455966949463,
				0.3946704864501953,
				0.9472687840461731
			],
			"translation":[
				0.004933595657348633,
				-0.19089508056640625,
				0
			]
		},
		{
			"children":[
				35
			],
			"mesh":36,
			"name":"Cube.002",
			"scale":[
				0.5067518353462219,
				0.28174248337745667,
				0.16890665888786316
			],
			"translation":[
				1.4499999284744263,
				0,
				1.5999994277954102
			]
		},
		{
			"mesh":37,
			"name":"Cube.015",
			"scale":[
				1.8551034927368164,
				3.0936508178710938,
				0.046587035059928894
			],
			"translation":[
				0,
				-0.1878678798675537,
				2.3499996662139893
			]
		},
		{
			"mesh":38,
			"name":"Sphere.001",
			"scale":[
				1,
				0.7506163716316223,
				1
			],
			"translation":[
				0,
				-0.5636034607887268,
				0.15357255935668945
			]
		},
		{
			"mesh":39,
			"name":"Sphere.002",
			"scale":[
				0.8641645312309265,
				1.2242121696472168,
				0.5265917181968689
			],
			"translation":[
				-0.8328181505203247,
				0.09360694885253906,
				-0.40125036239624023
			]
		},
		{
			"mesh":40,
			"name":"Sphere.003",
			"scale":[
				0.8641645312309265,
				1.2242121696472168,
				0.5265917181968689
			],
			"translation":[
				-0.8302438855171204,
				0.09360694885253906,
				-0.3242964744567871
			]
		},
		{
			"mesh":41,
			"name":"Sphere.004",
			"rotation":[
				-0.002425877610221505,
				0.8510628342628479,
				0.003641060320660472,
				0.5250456929206848
			],
			"scale":[
				0.8641644716262817,
				1.2242183685302734,
				0.5265894532203674
			],
			"translation":[
				1.326807975769043,
				0.5610662698745728,
				0.26035237312316895
			]
		},
		{
			"mesh":42,
			"name":"Sphere.005",
			"rotation":[
				0,
				-0.8510718941688538,
				0,
				0.5250491499900818
			],
			"scale":[
				-0.8641644716262817,
				-1.2242121696472168,
				-0.5265918374061584
			],
			"translation":[
				-1.3273690938949585,
				0.0936124324798584,
				0.2600705623626709
			]
		},
		{
			"mesh":43,
			"name":"Sphere.006",
			"rotation":[
				0,
				-0.8571673035621643,
				0,
				0.5150380730628967
			],
			"scale":[
				-0.8641644716262817,
				-1.2242121696472168,
				-0.5265918374061584
			],
			"translation":[
				-1.2652958631515503,
				0.09360730648040771,
				0.29588794708251953
			]
		},
		{
			"mesh":44,
			"name":"Sphere.009",
			"rotation":[
				-0.5150380730628967,
				0,
				0.8571673631668091,
				1.260233801758659e-07
			],
			"scale":[
				0.8641645312309265,
				1.2242121696472168,
				0.5265917778015137
			],
			"translation":[
				1.2652920484542847,
				0.09360730648040771,
				0.29588985443115234
			]
		},
		{
			"children":[
				34,
				36,
				37,
				38,
				39,
				40,
				41,
				42,
				43,
				44
			],
			"mesh":45,
			"name":"Sphere",
			"scale":[
				1.25,
				1.3307222127914429,
				1.2500001192092896
			],
			"translation":[
				0,
				5.375,
				-5
			]
		},
		{
			"mesh":46,
			"name":"Tee Joint",
			"scale":[
				0.9803929924964905,
				1,
				0.7895032167434692
			],
			"translation":[
				-0.723770022392273,
				0.6044995784759521,
				-2.625000238418579
			]
		},
		{
			"children":[
				0,
				1,
				2,
				3,
				4,
				5,
				9,
				10,
				11,
				12,
				13,
				14,
				15,
				16,
				18,
				27,
				28,
				45,
				46
			],
			"mesh":47,
			"name":"Cube.005",
			"translation":[
				0,
				-3.875,
				0
			]
		}
	],
	"animations":[
		{
			"channels":[
				{
					"sampler":0,
					"target":{
						"node":17,
						"path":"translation"
					}
				},
				{
					"sampler":1,
					"target":{
						"node":17,
						"path":"rotation"
					}
				},
				{
					"sampler":2,
					"target":{
						"node":17,
						"path":"scale"
					}
				}
			],
			"name":"CylinderAction",
			"samplers":[
				{
					"input":269,
					"interpolation":"STEP",
					"output":270
				},
				{
					"input":271,
					"interpolation":"LINEAR",
					"output":272
				},
				{
					"input":271,
					"interpolation":"LINEAR",
					"output":273
				}
			]
		}
	],
	"materials":[
		{
			"doubleSided":true,
			"name":"Material.007",
			"normalTexture":{
				"index":0
			},
			"pbrMetallicRoughness":{
				"baseColorTexture":{
					"index":1
				},
				"metallicRoughnessTexture":{
					"index":2
				}
			}
		},
		{
			"doubleSided":true,
			"extensions":{
				"KHR_materials_specular":{
					"specularTexture":{
						"index":3
					}
				}
			},
			"name":"Material.010",
			"normalTexture":{
				"index":4
			},
			"pbrMetallicRoughness":{
				"baseColorTexture":{
					"index":5
				},
				"metallicFactor":0,
				"roughnessFactor":0.5
			}
		},
		{
			"doubleSided":true,
			"name":"Material.009",
			"normalTexture":{
				"index":6
			},
			"pbrMetallicRoughness":{
				"baseColorTexture":{
					"index":7
				},
				"metallicRoughnessTexture":{
					"index":8
				}
			}
		},
		{
			"doubleSided":true,
			"name":"Material.011",
			"normalTexture":{
				"index":9
			},
			"pbrMetallicRoughness":{
				"baseColorTexture":{
					"index":10
				},
				"metallicRoughnessTexture":{
					"index":11
				}
			}
		},
		{
			"doubleSided":true,
			"name":"Material.008",
			"normalTexture":{
				"index":12
			},
			"pbrMetallicRoughness":{
				"baseColorTexture":{
					"index":13
				},
				"metallicRoughnessTexture":{
					"index":14
				}
			}
		},
		{
			"doubleSided":true,
			"name":"Material.019",
			"normalTexture":{
				"index":15
			},
			"pbrMetallicRoughness":{
				"baseColorTexture":{
					"index":16
				},
				"metallicFactor":0,
				"metallicRoughnessTexture":{
					"index":17
				}
			}
		},
		{
			"doubleSided":true,
			"name":"Material.020",
			"pbrMetallicRoughness":{
				"baseColorTexture":{
					"index":18
				},
				"metallicFactor":0.75,
				"roughnessFactor":0.5
			}
		},
		{
			"doubleSided":true,
			"name":"Material.017",
			"normalTexture":{
				"index":19
			},
			"pbrMetallicRoughness":{
				"baseColorTexture":{
					"index":20
				},
				"metallicRoughnessTexture":{
					"index":21
				}
			}
		},
		{
			"doubleSided":true,
			"name":"Material.022",
			"normalTexture":{
				"index":22
			},
			"pbrMetallicRoughness":{
				"baseColorTexture":{
					"index":23
				},
				"metallicRoughnessTexture":{
					"index":24
				}
			}
		},
		{
			"doubleSided":true,
			"name":"Material.021",
			"normalTexture":{
				"index":25
			},
			"pbrMetallicRoughness":{
				"baseColorTexture":{
					"index":26
				},
				"metallicFactor":0,
				"metallicRoughnessTexture":{
					"index":27
				}
			}
		},
		{
			"doubleSided":true,
			"extensions":{
				"KHR_materials_clearcoat":{
					"clearcoatRoughnessFactor":0
				},
				"KHR_materials_specular":{
					"specularFactor":0
				},
				"KHR_materials_ior":{
					"ior":1
				}
			},
			"name":"Material.012",
			"normalTexture":{
				"index":28
			},
			"pbrMetallicRoughness":{
				"baseColorTexture":{
					"index":29
				},
				"metallicRoughnessTexture":{
					"index":30
				}
			}
		},
		{
			"doubleSided":true,
			"emissiveFactor":[
				0,
				1,
				0.00045873108319938183
			],
			"extensions":{
				"KHR_materials_emissive_strength":{
					"emissiveStrength":100
				}
			},
			"name":"Material.002",
			"pbrMetallicRoughness":{
				"baseColorFactor":[
					0,
					0,
					0,
					1
				]
			}
		},
		{
			"doubleSided":true,
			"emissiveFactor":[
				1,
				0,
				0
			],
			"extensions":{
				"KHR_materials_emissive_strength":{
					"emissiveStrength":100
				}
			},
			"name":"Material.006",
			"pbrMetallicRoughness":{
				"baseColorFactor":[
					0,
					0,
					0,
					1
				]
			}
		},
		{
			"alphaMode":"MASK",
			"doubleSided":true,
			"extensions":{
				"KHR_materials_transmission":{
					"transmissionFactor":1
				}
			},
			"name":"Material.003",
			"pbrMetallicRoughness":{
				"baseColorFactor":[
					0.800000011920929,
					0.800000011920929,
					0.800000011920929,
					0
				],
				"metallicFactor":0,
				"roughnessFactor":0.10000000149011612
			}
		},
		{
			"doubleSided":true,
			"name":"Material.015",
			"normalTexture":{
				"index":31
			},
			"pbrMetallicRoughness":{
				"baseColorTexture":{
					"index":32
				},
				"metallicRoughnessTexture":{
					"index":33
				}
			}
		},
		{
			"doubleSided":true,
			"name":"Material.004",
			"normalTexture":{
				"index":34
			},
			"pbrMetallicRoughness":{
				"baseColorFactor":[
					0.8002194166183472,
					0,
					0.006592985242605209,
					1
				],
				"metallicRoughnessTexture":{
					"index":35
				}
			}
		},
		{
			"doubleSided":true,
			"name":"Material.005",
			"normalTexture":{
				"index":36
			},
			"pbrMetallicRoughness":{
				"baseColorTexture":{
					"index":37
				},
				"metallicRoughnessTexture":{
					"index":38
				}
			}
		},
		{
			"doubleSided":true,
			"name":"Material.016",
			"normalTexture":{
				"index":39
			},
			"pbrMetallicRoughness":{
				"baseColorTexture":{
					"index":40
				},
				"metallicFactor":0,
				"metallicRoughnessTexture":{
					"index":41
				}
			}
		},
		{
			"doubleSided":true,
			"name":"Material.018",
			"normalTexture":{
				"index":42
			},
			"pbrMetallicRoughness":{
				"baseColorTexture":{
					"index":43
				},
				"metallicFactor":0,
				"metallicRoughnessTexture":{
					"index":44
				}
			}
		},
		{
			"doubleSided":true,
			"name":"Material.014",
			"normalTexture":{
				"index":45
			},
			"pbrMetallicRoughness":{
				"baseColorTexture":{
					"index":46
				},
				"metallicRoughnessTexture":{
					"index":47
				}
			}
		},
		{
			"alphaMode":"MASK",
			"doubleSided":true,
			"extensions":{
				"KHR_materials_transmission":{
					"transmissionFactor":1
				}
			},
			"name":"Material.001",
			"pbrMetallicRoughness":{
				"baseColorFactor":[
					0.800000011920929,
					0.800000011920929,
					0.800000011920929,
					0
				],
				"metallicFactor":0,
				"roughnessFactor":0
			}
		}
	],
	"meshes":[
		{
			"name":"Mesh.001",
			"primitives":[
				{
					"attributes":{
						"POSITION":0,
						"NORMAL":1,
						"TEXCOORD_0":2
					},
					"indices":3,
					"material":0
				},
				{
					"attributes":{
						"POSITION":4,
						"NORMAL":5,
						"TEXCOORD_0":6
					},
					"indices":7,
					"material":1
				}
			]
		},
		{
			"name":"Mesh.003",
			"primitives":[
				{
					"attributes":{
						"POSITION":8,
						"NORMAL":9,
						"TEXCOORD_0":10
					},
					"indices":11,
					"material":0
				},
				{
					"attributes":{
						"POSITION":12,
						"NORMAL":13,
						"TEXCOORD_0":14
					},
					"indices":15,
					"material":2
				},
				{
					"attributes":{
						"POSITION":16,
						"NORMAL":17,
						"TEXCOORD_0":18
					},
					"indices":19,
					"material":1
				}
			]
		},
		{
			"name":"Mesh.004",
			"primitives":[
				{
					"attributes":{
						"POSITION":20,
						"NORMAL":21,
						"TEXCOORD_0":22
					},
					"indices":23,
					"material":0
				},
				{
					"attributes":{
						"POSITION":24,
						"NORMAL":25,
						"TEXCOORD_0":26
					},
					"indices":15,
					"material":3
				}
			]
		},
		{
			"name":"Mesh.005",
			"primitives":[
				{
					"attributes":{
						"POSITION":27,
						"NORMAL":28,
						"TEXCOORD_0":29
					},
					"indices":30,
					"material":0
				},
				{
					"attributes":{
						"POSITION":31,
						"NORMAL":32,
						"TEXCOORD_0":33
					},
					"indices":34,
					"material":1
				}
			]
		},
		{
			"name":"Mesh",
			"primitives":[
				{
					"attributes":{
						"POSITION":35,
						"NORMAL":36,
						"TEXCOORD_0":37
					},
					"indices":38,
					"material":0
				},
				{
					"attributes":{
						"POSITION":39,
						"NORMAL":40,
						"TEXCOORD_0":41
					},
					"indices":7,
					"material":1
				}
			]
		},
		{
			"name":"Mesh.014",
			"primitives":[
				{
					"attributes":{
						"POSITION":42,
						"NORMAL":43,
						"TEXCOORD_0":44
					},
					"indices":45,
					"material":4
				},
				{
					"attributes":{
						"POSITION":46,
						"NORMAL":47,
						"TEXCOORD_0":48
					},
					"indices":49,
					"material":0
				}
			]
		},
		{
			"name":"Cube.013",
			"primitives":[
				{
					"attributes":{
						"POSITION":50,
						"NORMAL":51,
						"TEXCOORD_0":52
					},
					"indices":53,
					"material":5
				}
			]
		},
		{
			"name":"Cube.014",
			"primitives":[
				{
					"attributes":{
						"POSITION":54,
						"NORMAL":55,
						"TEXCOORD_0":56
					},
					"indices":57,
					"material":5
				}
			]
		},
		{
			"name":"Cube.015",
			"primitives":[
				{
					"attributes":{
						"POSITION":58,
						"NORMAL":59,
						"TEXCOORD_0":60
					},
					"indices":61,
					"material":5
				}
			]
		},
		{
			"name":"Mesh.012",
			"primitives":[
				{
					"attributes":{
						"POSITION":62,
						"NORMAL":63,
						"TEXCOORD_0":64
					},
					"indices":65,
					"material":5
				}
			]
		},
		{
			"name":"Cube",
			"primitives":[
				{
					"attributes":{
						"POSITION":66,
						"NORMAL":67,
						"TEXCOORD_0":68
					},
					"indices":69,
					"material":1
				}
			]
		},
		{
			"name":"Cube.002",
			"primitives":[
				{
					"attributes":{
						"POSITION":70,
						"NORMAL":71,
						"TEXCOORD_0":72
					},
					"indices":73,
					"material":0
				},
				{
					"attributes":{
						"POSITION":74,
						"NORMAL":75,
						"TEXCOORD_0":76
					},
					"indices":77,
					"material":2
				},
				{
					"attributes":{
						"POSITION":78,
						"NORMAL":79,
						"TEXCOORD_0":80
					},
					"indices":81,
					"material":1
				}
			]
		},
		{
			"name":"Cube.007",
			"primitives":[
				{
					"attributes":{
						"POSITION":82,
						"NORMAL":83,
						"TEXCOORD_0":84
					},
					"indices":85,
					"material":0
				},
				{
					"attributes":{
						"POSITION":86,
						"NORMAL":87,
						"TEXCOORD_0":88
					},
					"indices":89,
					"material":1
				}
			]
		},
		{
			"name":"Cube.008",
			"primitives":[
				{
					"attributes":{
						"POSITION":90,
						"NORMAL":91,
						"TEXCOORD_0":92
					},
					"indices":93,
					"material":0
				},
				{
					"attributes":{
						"POSITION":94,
						"NORMAL":95,
						"TEXCOORD_0":96
					},
					"indices":97,
					"material":1
				}
			]
		},
		{
			"name":"Cube.016",
			"primitives":[
				{
					"attributes":{
						"POSITION":98,
						"NORMAL":99,
						"TEXCOORD_0":100
					},
					"indices":101,
					"material":1
				}
			]
		},
		{
			"name":"Cube.024",
			"primitives":[
				{
					"attributes":{
						"POSITION":102,
						"NORMAL":103,
						"TEXCOORD_0":104
					},
					"indices":105,
					"material":4
				},
				{
					"attributes":{
						"POSITION":106,
						"NORMAL":107,
						"TEXCOORD_0":108
					},
					"indices":109,
					"material":0
				}
			]
		},
		{
			"name":"Cube.011",
			"primitives":[
				{
					"attributes":{
						"POSITION":110,
						"NORMAL":111,
						"TEXCOORD_0":112
					},
					"indices":113,
					"material":4
				},
				{
					"attributes":{
						"POSITION":114,
						"NORMAL":115,
						"TEXCOORD_0":116
					},
					"indices":117,
					"material":1
				}
			]
		},
		{
			"name":"Cylinder",
			"primitives":[
				{
					"attributes":{
						"POSITION":118,
						"NORMAL":119,
						"TEXCOORD_0":120
					},
					"indices":121,
					"material":6
				}
			]
		},
		{
			"name":"Cylinder.001",
			"primitives":[
				{
					"attributes":{
						"POSITION":122,
						"NORMAL":123,
						"TEXCOORD_0":124
					},
					"indices":125,
					"material":7
				}
			]
		},
		{
			"name":"Circle.004",
			"primitives":[
				{
					"attributes":{
						"POSITION":126,
						"NORMAL":127,
						"TEXCOORD_0":128
					},
					"indices":129,
					"material":8
				}
			]
		},
		{
			"name":"Cylinder.003",
			"primitives":[
				{
					"attributes":{
						"POSITION":130,
						"NORMAL":131,
						"TEXCOORD_0":132
					},
					"indices":133,
					"material":9
				}
			]
		},
		{
			"name":"Cylinder.005",
			"primitives":[
				{
					"attributes":{
						"POSITION":134,
						"NORMAL":135,
						"TEXCOORD_0":136
					},
					"indices":137,
					"material":9
				}
			]
		},
		{
			"name":"Cylinder.008",
			"primitives":[
				{
					"attributes":{
						"POSITION":138,
						"NORMAL":139,
						"TEXCOORD_0":140
					},
					"indices":141,
					"material":10
				}
			]
		},
		{
			"name":"Sphere.017",
			"primitives":[
				{
					"attributes":{
						"POSITION":142,
						"NORMAL":143,
						"TEXCOORD_0":144
					},
					"indices":145,
					"material":11
				},
				{
					"attributes":{
						"POSITION":146,
						"NORMAL":147,
						"TEXCOORD_0":148
					},
					"indices":149,
					"material":12
				}
			]
		},
		{
			"name":"Cylinder.009",
			"primitives":[
				{
					"attributes":{
						"POSITION":150,
						"NORMAL":151,
						"TEXCOORD_0":152
					},
					"indices":153,
					"material":13
				}
			]
		},
		{
			"name":"Cylinder.010",
			"primitives":[
				{
					"attributes":{
						"POSITION":154,
						"NORMAL":155,
						"TEXCOORD_0":156
					},
					"indices":157,
					"material":10
				}
			]
		},
		{
			"name":"Cylinder.007",
			"primitives":[
				{
					"attributes":{
						"POSITION":158,
						"NORMAL":159,
						"TEXCOORD_0":160
					},
					"indices":141,
					"material":10
				}
			]
		},
		{
			"name":"Cylinder.002",
			"primitives":[
				{
					"attributes":{
						"POSITION":161,
						"NORMAL":162,
						"TEXCOORD_0":163
					},
					"indices":164,
					"material":9
				}
			]
		},
		{
			"name":"Elbow Joint",
			"primitives":[
				{
					"attributes":{
						"POSITION":165,
						"NORMAL":166,
						"TEXCOORD_0":167
					},
					"indices":168,
					"material":7
				}
			]
		},
		{
			"name":"Circle.001",
			"primitives":[
				{
					"attributes":{
						"POSITION":169,
						"NORMAL":170,
						"TEXCOORD_0":171
					},
					"indices":172,
					"material":8
				}
			]
		},
		{
			"name":"Circle.002",
			"primitives":[
				{
					"attributes":{
						"POSITION":173,
						"NORMAL":174,
						"TEXCOORD_0":175
					},
					"indices":176,
					"material":8
				}
			]
		},
		{
			"name":"Circle.003",
			"primitives":[
				{
					"attributes":{
						"POSITION":177,
						"NORMAL":178,
						"TEXCOORD_0":179
					},
					"indices":176,
					"material":8
				}
			]
		},
		{
			"name":"Circle.006",
			"primitives":[
				{
					"attributes":{
						"POSITION":180,
						"NORMAL":181,
						"TEXCOORD_0":182
					},
					"indices":172,
					"material":8
				}
			]
		},
		{
			"name":"Circle",
			"primitives":[
				{
					"attributes":{
						"POSITION":183,
						"NORMAL":184,
						"TEXCOORD_0":185
					},
					"indices":176,
					"material":8
				}
			]
		},
		{
			"name":"Cube.003",
			"primitives":[
				{
					"attributes":{
						"POSITION":186,
						"NORMAL":187,
						"TEXCOORD_0":188
					},
					"indices":189,
					"material":14
				}
			]
		},
		{
			"name":"Torus",
			"primitives":[
				{
					"attributes":{
						"POSITION":190,
						"NORMAL":191,
						"TEXCOORD_0":192
					},
					"indices":193,
					"material":15
				},
				{
					"attributes":{
						"POSITION":194,
						"NORMAL":195,
						"TEXCOORD_0":196
					},
					"indices":197,
					"material":16
				}
			]
		},
		{
			"name":"Cube.004",
			"primitives":[
				{
					"attributes":{
						"POSITION":198,
						"NORMAL":199,
						"TEXCOORD_0":200
					},
					"indices":201,
					"material":14
				}
			]
		},
		{
			"name":"Cube.020",
			"primitives":[
				{
					"attributes":{
						"POSITION":202,
						"NORMAL":203,
						"TEXCOORD_0":204
					},
					"indices":205,
					"material":14
				},
				{
					"attributes":{
						"POSITION":206,
						"NORMAL":207,
						"TEXCOORD_0":208
					},
					"indices":209,
					"material":7
				},
				{
					"attributes":{
						"POSITION":210,
						"NORMAL":211,
						"TEXCOORD_0":212
					},
					"indices":213,
					"material":17
				}
			]
		},
		{
			"name":"Sphere.001",
			"primitives":[
				{
					"attributes":{
						"POSITION":214,
						"NORMAL":215,
						"TEXCOORD_0":216
					},
					"indices":217,
					"material":18
				},
				{
					"attributes":{
						"POSITION":218,
						"NORMAL":219,
						"TEXCOORD_0":220
					},
					"indices":221,
					"material":5
				}
			]
		},
		{
			"name":"Sphere.012",
			"primitives":[
				{
					"attributes":{
						"POSITION":222,
						"NORMAL":223,
						"TEXCOORD_0":224
					},
					"indices":225,
					"material":19
				}
			]
		},
		{
			"name":"Sphere.003",
			"primitives":[
				{
					"attributes":{
						"POSITION":226,
						"NORMAL":227,
						"TEXCOORD_0":228
					},
					"indices":225,
					"material":19
				}
			]
		},
		{
			"name":"Sphere.013",
			"primitives":[
				{
					"attributes":{
						"POSITION":229,
						"NORMAL":230,
						"TEXCOORD_0":231
					},
					"indices":232,
					"material":19
				}
			]
		},
		{
			"name":"Sphere.014",
			"primitives":[
				{
					"attributes":{
						"POSITION":233,
						"NORMAL":234,
						"TEXCOORD_0":235
					},
					"indices":232,
					"material":19
				}
			]
		},
		{
			"name":"Sphere.011",
			"primitives":[
				{
					"attributes":{
						"POSITION":236,
						"NORMAL":237,
						"TEXCOORD_0":238
					},
					"indices":232,
					"material":19
				}
			]
		},
		{
			"name":"Sphere.010",
			"primitives":[
				{
					"attributes":{
						"POSITION":239,
						"NORMAL":240,
						"TEXCOORD_0":241
					},
					"indices":232,
					"material":19
				}
			]
		},
		{
			"name":"Sphere",
			"primitives":[
				{
					"attributes":{
						"POSITION":242,
						"NORMAL":243,
						"TEXCOORD_0":244
					},
					"indices":245,
					"material":14
				},
				{
					"attributes":{
						"POSITION":246,
						"NORMAL":247,
						"TEXCOORD_0":248
					},
					"indices":249,
					"material":20
				},
				{
					"attributes":{
						"POSITION":250,
						"NORMAL":251,
						"TEXCOORD_0":252
					},
					"indices":253,
					"material":7
				},
				{
					"attributes":{
						"POSITION":254,
						"NORMAL":255,
						"TEXCOORD_0":256
					},
					"indices":257,
					"material":17
				}
			]
		},
		{
			"name":"Tee Joint",
			"primitives":[
				{
					"attributes":{
						"POSITION":258,
						"NORMAL":259
					},
					"indices":260,
					"material":6
				}
			]
		},
		{
			"name":"Cube.006",
			"primitives":[
				{
					"attributes":{
						"POSITION":261,
						"NORMAL":262,
						"TEXCOORD_0":263
					},
					"indices":264,
					"material":0
				},
				{
					"attributes":{
						"POSITION":265,
						"NORMAL":266,
						"TEXCOORD_0":267
					},
					"indices":268,
					"material":3
				}
			]
		}
	],
	"textures":[
		{
			"sampler":0,
			"source":0
		},
		{
			"sampler":0,
			"source":1
		},
		{
			"sampler":0,
			"source":2
		},
		{
			"sampler":0,
			"source":3
		},
		{
			"sampler":0,
			"source":4
		},
		{
			"sampler":0,
			"source":5
		},
		{
			"sampler":0,
			"source":6
		},
		{
			"sampler":0,
			"source":7
		},
		{
			"sampler":0,
			"source":8
		},
		{
			"sampler":0,
			"source":9
		},
		{
			"sampler":0,
			"source":10
		},
		{
			"sampler":0,
			"source":11
		},
		{
			"sampler":0,
			"source":12
		},
		{
			"sampler":0,
			"source":13
		},
		{
			"sampler":0,
			"source":14
		},
		{
			"sampler":0,
			"source":15
		},
		{
			"sampler":0,
			"source":16
		},
		{
			"sampler":0,
			"source":17
		},
		{
			"sampler":0,
			"source":18
		},
		{
			"sampler":0,
			"source":19
		},
		{
			"sampler":0,
			"source":20
		},
		{
			"sampler":0,
			"source":21
		},
		{
			"sampler":0,
			"source":22
		},
		{
			"sampler":0,
			"source":23
		},
		{
			"sampler":0,
			"source":24
		},
		{
			"sampler":0,
			"source":25
		},
		{
			"sampler":0,
			"source":26
		},
		{
			"sampler":0,
			"source":27
		},
		{
			"sampler":0,
			"source":28
		},
		{
			"sampler":0,
			"source":29
		},
		{
			"sampler":0,
			"source":30
		},
		{
			"sampler":0,
			"source":31
		},
		{
			"sampler":0,
			"source":18
		},
		{
			"sampler":0,
			"source":32
		},
		{
			"sampler":0,
			"source":33
		},
		{
			"sampler":0,
			"source":34
		},
		{
			"sampler":0,
			"source":33
		},
		{
			"sampler":0,
			"source":35
		},
		{
			"sampler":0,
			"source":36
		},
		{
			"sampler":0,
			"source":37
		},
		{
			"sampler":0,
			"source":38
		},
		{
			"sampler":0,
			"source":39
		},
		{
			"sampler":0,
			"source":40
		},
		{
			"sampler":0,
			"source":41
		},
		{
			"sampler":0,
			"source":42
		},
		{
			"sampler":0,
			"source":43
		},
		{
			"sampler":0,
			"source":44
		},
		{
			"sampler":0,
			"source":45
		}
	],
	"images":[
		{
			"mimeType":"image/png",
			"name":"Metal059C_1K-PNG_NormalGL",
			"uri":"Textures/Metal059C_1K-PNG_NormalGL.png"
		},
		{
			"mimeType":"image/png",
			"name":"Metal059C_1K-PNG_Color",
			"uri":"Textures/Metal059C_1K-PNG_Color.png"
		},
		{
			"mimeType":"image/png",
			"name":"Metal059C_1K-PNG_Metalness-Metal059C_1K-PNG_Roughness",
			"uri":"Textures/Metal059C_1K-PNG_Metalness-Metal059C_1K-PNG_Roughness.png"
		},
		{
			"mimeType":"image/jpeg",
			"name":"1K-plasteR_8-specular",
			"uri":"Textures/1K-plasteR_8-specular.jpg"
		},
		{
			"mimeType":"image/jpeg",
			"name":"1K-plasteR_8-normal",
			"uri":"Textures/1K-plasteR_8-normal.jpg"
		},
		{
			"mimeType":"image/jpeg",
			"name":"1K-plasteR_8-diffuse",
			"uri":"Textures/1K-plasteR_8-diffuse.jpg"
		},
		{
			"mimeType":"image/png",
			"name":"metal_0069_normal_opengl_1k",
			"uri":"Textures/metal_0069_normal_opengl_1k.png"
		},
		{
			"mimeType":"image/jpeg",
			"name":"metal_0069_color_1k",
			"uri":"Textures/metal_0069_color_1k.jpg"
		},
		{
			"mimeType":"image/png",
			"name":"metal_0069_metallic_1k-metal_0069_roughness_1k",
			"uri":"Textures/metal_0069_metallic_1k-metal_0069_roughness_1k.png"
		},
		{
			"mimeType":"image/png",
			"name":"metal_0077_normal_opengl_1k",
			"uri":"Textures/metal_0077_normal_opengl_1k.png"
		},
		{
			"mimeType":"image/jpeg",
			"name":"metal_0077_color_1k",
			"uri":"Textures/metal_0077_color_1k.jpg"
		},
		{
			"mimeType":"image/png",
			"name":"metal_0077_metallic_1k-metal_0077_roughness_1k",
			"uri":"Textures/metal_0077_metallic_1k-metal_0077_roughness_1k.png"
		},
		{
			"mimeType":"image/png",
			"name":"Metal059B_1K-PNG_NormalGL",
			"uri":"Textures/Metal059B_1K-PNG_NormalGL.png"
		},
		{
			"mimeType":"image/png",
			"name":"Metal059B_1K-PNG_Color",
			"uri":"Textures/Metal059B_1K-PNG_Color.png"
		},
		{
			"mimeType":"image/png",
			"name":"Metal059B_1K-PNG_Metalness-Metal059B_1K-PNG_Roughness",
			"uri":"Textures/Metal059B_1K-PNG_Metalness-Metal059B_1K-PNG_Roughness.png"
		},
		{
			"mimeType":"image/png",
			"name":"Wood028_1K-PNG_NormalGL",
			"uri":"Textures/Wood028_1K-PNG_NormalGL.png"
		},
		{
			"mimeType":"image/png",
			"name":"Wood028_1K-PNG_Color",
			"uri":"Textures/Wood028_1K-PNG_Color.png"
		},
		{
			"mimeType":"image/png",
			"name":"Wood028_1K-PNG_Roughness",
			"uri":"Textures/Wood028_1K-PNG_Roughness.png"
		},
		{
			"mimeType":"image/png",
			"name":"CorrugatedSteel001_1K-PNG_Color",
			"uri":"Textures/CorrugatedSteel001_1K-PNG_Color.png"
		},
		{
			"mimeType":"image/png",
			"name":"Metal052C_1K-PNG_NormalGL",
			"uri":"Textures/Metal052C_1K-PNG_NormalGL.png"
		},
		{
			"mimeType":"image/png",
			"name":"Metal052C_1K-PNG_Color",
			"uri":"Textures/Metal052C_1K-PNG_Color.png"
		},
		{
			"mimeType":"image/png",
			"name":"Metal052C_1K-PNG_Metalness-Metal052C_1K-PNG_Roughness",
			"uri":"Textures/Metal052C_1K-PNG_Metalness-Metal052C_1K-PNG_Roughness.png"
		},
		{
			"mimeType":"image/png",
			"name":"Rope001_1K-PNG_NormalGL",
			"uri":"Textures/Rope001_1K-PNG_NormalGL.png"
		},
		{
			"mimeType":"image/png",
			"name":"Rope001_1K-PNG_Color",
			"uri":"Textures/Rope001_1K-PNG_Color.png"
		},
		{
			"mimeType":"image/png",
			"name":"Rope001_1K-PNG_Metalness-Rope001_1K-PNG_Roughness",
			"uri":"Textures/Rope001_1K-PNG_Metalness-Rope001_1K-PNG_Roughness.png"
		},
		{
			"mimeType":"image/png",
			"name":"Wood077_1K-PNG_NormalGL",
			"uri":"Textures/Wood077_1K-PNG_NormalGL.png"
		},
		{
			"mimeType":"image/png",
			"name":"Wood077_1K-PNG_Color",
			"uri":"Textures/Wood077_1K-PNG_Color.png"
		},
		{
			"mimeType":"image/png",
			"name":"Wood077_1K-PNG_Roughness",
			"uri":"Textures/Wood077_1K-PNG_Roughness.png"
		},
		{
			"mimeType":"image/png",
			"name":"Metal059A_1K-PNG_NormalGL",
			"uri":"Textures/Metal059A_1K-PNG_NormalGL.png"
		},
		{
			"mimeType":"image/png",
			"name":"Metal059A_1K-PNG_Color",
			"uri":"Textures/Metal059A_1K-PNG_Color.png"
		},
		{
			"mimeType":"image/png",
			"name":"Metal059A_1K-PNG_Metalness-Metal059A_1K-PNG_Roughness",
			"uri":"Textures/Metal059A_1K-PNG_Metalness-Metal059A_1K-PNG_Roughness.png"
		},
		{
			"mimeType":"image/png",
			"name":"CorrugatedSteel001_1K-PNG_NormalGL",
			"uri":"Textures/CorrugatedSteel001_1K-PNG_NormalGL.png"
		},
		{
			"mimeType":"image/png",
			"name":"CorrugatedSteel001_1K-PNG_Metalness-CorrugatedSteel001_1K-PNG_Roughness",
			"uri":"Textures/CorrugatedSteel001_1K-PNG_Metalness-CorrugatedSteel001_1K-PNG_Roughness.png"
		},
		{
			"mimeType":"image/png",
			"name":"vinyl-tablecloth_normal-ogl",
			"uri":"Textures/vinyl-tablecloth_normal-ogl.png"
		},
		{
			"mimeType":"image/png",
			"name":"vinyl-tablecloth_metallic.png-vinyl-tablecloth_roughness.png",
			"uri":"Textures/vinyl-tablecloth_metallic.png-vinyl-tablecloth_roughness.png.png"
		},
		{
			"mimeType":"image/png",
			"name":"vinyl-tablecloth_albedo",
			"uri":"Textures/vinyl-tablecloth_albedo.png"
		},
		{
			"mimeType":"image/png",
			"name":"vinyl-tablecloth_metallic-vinyl-tablecloth_roughness",
			"uri":"Textures/vinyl-tablecloth_metallic-vinyl-tablecloth_roughness.png"
		},
		{
			"mimeType":"image/png",
			"name":"Wood021_1K-PNG_NormalGL",
			"uri":"Textures/Wood021_1K-PNG_NormalGL.png"
		},
		{
			"mimeType":"image/png",
			"name":"Wood021_1K-PNG_Color",
			"uri":"Textures/Wood021_1K-PNG_Color.png"
		},
		{
			"mimeType":"image/png",
			"name":"Wood021_1K-PNG_Roughness",
			"uri":"Textures/Wood021_1K-PNG_Roughness.png"
		},
		{
			"mimeType":"image/png",
			"name":"Wood047_1K-PNG_NormalGL",
			"uri":"Textures/Wood047_1K-PNG_NormalGL.png"
		},
		{
			"mimeType":"image/png",
			"name":"Wood047_1K-PNG_Color",
			"uri":"Textures/Wood047_1K-PNG_Color.png"
		},
		{
			"mimeType":"image/png",
			"name":"Wood047_1K-PNG_Roughness",
			"uri":"Textures/Wood047_1K-PNG_Roughness.png"
		},
		{
			"mimeType":"image/png",
			"name":"metal_0072_normal_opengl_1k",
			"uri":"Textures/metal_0072_normal_opengl_1k.png"
		},
		{
			"mimeType":"image/jpeg",
			"name":"metal_0072_color_1k",
			"uri":"Textures/metal_0072_color_1k.jpg"
		},
		{
			"mimeType":"image/png",
			"name":"metal_0072_metallic_1k-metal_0072_roughness_1k",
			"uri":"Textures/metal_0072_metallic_1k-metal_0072_roughness_1k.png"
		}
	],
	"accessors":[
		{
			"bufferView":0,
			"componentType":5126,
			"count":74,
			"max":[
				0.5155158042907715,
				1.6590874195098877,
				4.238286972045898
			],
			"min":[
				-0.2741852104663849,
				-2.090913772583008,
				-4.030539035797119
			],
			"type":"VEC3"
		},
		{
			"bufferView":1,
			"componentType":5126,
			"count":74,
			"type":"VEC3"
		},
		{
			"bufferView":2,
			"componentType":5126,
			"count":74,
			"type":"VEC2"
		},
		{
			"bufferView":3,
			"componentType":5123,
			"count":192,
			"type":"SCALAR"
		},
		{
			"bufferView":4,
			"componentType":5126,
			"count":22,
			"max":[
				0.5155158042907715,
				1.6590869426727295,
				4.238286972045898
			],
			"min":[
				-0.0897553339600563,
				-2.090913772583008,
				-4.030539035797119
			],
			"type":"VEC3"
		},
		{
			"bufferView":5,
			"componentType":5126,
			"count":22,
			"type":"VEC3"
		},
		{
			"bufferView":6,
			"componentType":5126,
			"count":22,
			"type":"VEC2"
		},
		{
			"bufferView":7,
			"componentType":5123,
			"count":60,
			"type":"SCALAR"
		},
		{
			"bufferView":8,
			"componentType":5126,
			"count":56,
			"max":[
				2.999999761581421,
				0.1250009536743164,
				1.5078706741333008
			],
			"min":[
				-2.999999761581421,
				-0.125,
				-1.4921293258666992
			],
			"type":"VEC3"
		},
		{
			"bufferView":9,
			"componentType":5126,
			"count":56,
			"type":"VEC3"
		},
		{
			"bufferView":10,
			"componentType":5126,
			"count":56,
			"type":"VEC2"
		},
		{
			"bufferView":11,
			"componentType":5123,
			"count":150,
			"type":"SCALAR"
		},
		{
			"bufferView":12,
			"componentType":5126,
			"count":25,
			"max":[
				2.999999761581421,
				0.1250009536743164,
				1.5078706741333008
			],
			"min":[
				-2.999999761581421,
				0.1250009536743164,
				-1.4921293258666992
			],
			"type":"VEC3"
		},
		{
			"bufferView":13,
			"componentType":5126,
			"count":25,
			"type":"VEC3"
		},
		{
			"bufferView":14,
			"componentType":5126,
			"count":25,
			"type":"VEC2"
		},
		{
			"bufferView":15,
			"componentType":5123,
			"count":69,
			"type":"SCALAR"
		},
		{
			"bufferView":16,
			"componentType":5126,
			"count":25,
			"max":[
				2.999999761581421,
				-0.125,
				1.5078706741333008
			],
			"min":[
				-2.999999761581421,
				-0.125,
				-1.4921293258666992
			],
			"type":"VEC3"
		},
		{
			"bufferView":17,
			"componentType":5126,
			"count":25,
			"type":"VEC3"
		},
		{
			"bufferView":18,
			"componentType":5126,
			"count":25,
			"type":"VEC2"
		},
		{
			"bufferView":19,
			"componentType":5123,
			"count":69,
			"type":"SCALAR"
		},
		{
			"bufferView":20,
			"componentType":5126,
			"count":54,
			"max":[
				2.4999988079071045,
				0.1249990463256836,
				1.2565538883209229
			],
			"min":[
				-2.4999988079071045,
				-0.1250009536743164,
				-1.2434358596801758
			],
			"type":"VEC3"
		},
		{
			"bufferView":21,
			"componentType":5126,
			"count":54,
			"type":"VEC3"
		},
		{
			"bufferView":22,
			"componentType":5126,
			"count":54,
			"type":"VEC2"
		},
		{
			"bufferView":23,
			"componentType":5123,
			"count":219,
			"type":"SCALAR"
		},
		{
			"bufferView":24,
			"componentType":5126,
			"count":25,
			"max":[
				2.4999988079071045,
				0.1249990463256836,
				1.2565538883209229
			],
			"min":[
				-2.4999988079071045,
				0.1249990463256836,
				-1.2434358596801758
			],
			"type":"VEC3"
		},
		{
			"bufferView":25,
			"componentType":5126,
			"count":25,
			"type":"VEC3"
		},
		{
			"bufferView":26,
			"componentType":5126,
			"count":25,
			"type":"VEC2"
		},
		{
			"bufferView":27,
			"componentType":5126,
			"count":34,
			"max":[
				2.824023962020874,
				1.7868670225143433,
				0.32674312591552734
			],
			"min":[
				-2.8239991664886475,
				-1.9631333351135254,
				-0.6763238906860352
			],
			"type":"VEC3"
		},
		{
			"bufferView":28,
			"componentType":5126,
			"count":34,
			"type":"VEC3"
		},
		{
			"bufferView":29,
			"componentType":5126,
			"count":34,
			"type":"VEC2"
		},
		{
			"bufferView":30,
			"componentType":5123,
			"count":78,
			"type":"SCALAR"
		},
		{
			"bufferView":31,
			"componentType":5126,
			"count":20,
			"max":[
				2.824023962020874,
				1.7868670225143433,
				0.19558286666870117
			],
			"min":[
				-2.8239991664886475,
				-1.7661454677581787,
				-0.5347082614898682
			],
			"type":"VEC3"
		},
		{
			"bufferView":32,
			"componentType":5126,
			"count":20,
			"type":"VEC3"
		},
		{
			"bufferView":33,
			"componentType":5126,
			"count":20,
			"type":"VEC2"
		},
		{
			"bufferView":34,
			"componentType":5123,
			"count":54,
			"type":"SCALAR"
		},
		{
			"bufferView":35,
			"componentType":5126,
			"count":72,
			"max":[
				0.27417969703674316,
				1.6590871810913086,
				4.232002258300781
			],
			"min":[
				-0.5156164169311523,
				-2.0909135341644287,
				-4.024254322052002
			],
			"type":"VEC3"
		},
		{
			"bufferView":36,
			"componentType":5126,
			"count":72,
			"type":"VEC3"
		},
		{
			"bufferView":37,
			"componentType":5126,
			"count":72,
			"type":"VEC2"
		},
		{
			"bufferView":38,
			"componentType":5123,
			"count":186,
			"type":"SCALAR"
		},
		{
			"bufferView":39,
			"componentType":5126,
			"count":22,
			"max":[
				0.08965429663658142,
				1.6590871810913086,
				4.232002258300781
			],
			"min":[
				-0.5156164169311523,
				-2.0909135341644287,
				-4.024254322052002
			],
			"type":"VEC3"
		},
		{
			"bufferView":40,
			"componentType":5126,
			"count":22,
			"type":"VEC3"
		},
		{
			"bufferView":41,
			"componentType":5126,
			"count":22,
			"type":"VEC2"
		},
		{
			"bufferView":42,
			"componentType":5126,
			"count":56,
			"max":[
				2.8752756118774414,
				0.75,
				1.5161687135696411
			],
			"min":[
				-2.8752756118774414,
				0.125,
				-1.3671293258666992
			],
			"type":"VEC3"
		},
		{
			"bufferView":43,
			"componentType":5126,
			"count":56,
			"type":"VEC3"
		},
		{
			"bufferView":44,
			"componentType":5126,
			"count":56,
			"type":"VEC2"
		},
		{
			"bufferView":45,
			"componentType":5123,
			"count":150,
			"type":"SCALAR"
		},
		{
			"bufferView":46,
			"componentType":5126,
			"count":208,
			"max":[
				2.999999761581421,
				0.7749999761581421,
				1.5161687135696411
			],
			"min":[
				-2.999999761581421,
				0.125,
				-1.4921307563781738
			],
			"type":"VEC3"
		},
		{
			"bufferView":47,
			"componentType":5126,
			"count":208,
			"type":"VEC3"
		},
		{
			"bufferView":48,
			"componentType":5126,
			"count":208,
			"type":"VEC2"
		},
		{
			"bufferView":49,
			"componentType":5123,
			"count":570,
			"type":"SCALAR"
		},
		{
			"bufferView":50,
			"componentType":5126,
			"count":24,
			"max":[
				0.1060100793838501,
				0.3550910949707031,
				0.18662261962890625
			],
			"min":[
				-0.1060100793838501,
				-0.3550814688205719,
				-1.4772887229919434
			],
			"type":"VEC3"
		},
		{
			"bufferView":51,
			"componentType":5126,
			"count":24,
			"type":"VEC3"
		},
		{
			"bufferView":52,
			"componentType":5126,
			"count":24,
			"type":"VEC2"
		},
		{
			"bufferView":53,
			"componentType":5123,
			"count":36,
			"type":"SCALAR"
		},
		{
			"bufferView":54,
			"componentType":5126,
			"count":24,
			"max":[
				0.10601010173559189,
				0.17754173278808594,
				-0.4558553695678711
			],
			"min":[
				-0.10601010173559189,
				-0.17754080891609192,
				-0.521128237247467
			],
			"type":"VEC3"
		},
		{
			"bufferView":55,
			"componentType":5126,
			"count":24,
			"type":"VEC3"
		},
		{
			"bufferView":56,
			"componentType":5126,
			"count":24,
			"type":"VEC2"
		},
		{
			"bufferView":57,
			"componentType":5123,
			"count":36,
			"type":"SCALAR"
		},
		{
			"bufferView":58,
			"componentType":5126,
			"count":24,
			"max":[
				0.1060100868344307,
				0.17754024267196655,
				-0.571805477142334
			],
			"min":[
				-0.1060100868344307,
				-0.1775408685207367,
				-0.6320721507072449
			],
			"type":"VEC3"
		},
		{
			"bufferView":59,
			"componentType":5126,
			"count":24,
			"type":"VEC3"
		},
		{
			"bufferView":60,
			"componentType":5126,
			"count":24,
			"type":"VEC2"
		},
		{
			"bufferView":61,
			"componentType":5123,
			"count":36,
			"type":"SCALAR"
		},
		{
			"bufferView":62,
			"componentType":5126,
			"count":344,
			"max":[
				2.0449790954589844,
				0.13368739187717438,
				0.3138783574104309
			],
			"min":[
				-2.0399069786071777,
				-0.11631260812282562,
				-0.41418251395225525
			],
			"type":"VEC3"
		},
		{
			"bufferView":63,
			"componentType":5126,
			"count":344,
			"type":"VEC3"
		},
		{
			"bufferView":64,
			"componentType":5126,
			"count":344,
			"type":"VEC2"
		},
		{
			"bufferView":65,
			"componentType":5123,
			"count":1362,
			"type":"SCALAR"
		},
		{
			"bufferView":66,
			"componentType":5126,
			"count":224,
			"max":[
				2.0712952613830566,
				2.3146917819976807,
				0.19634199142456055
			],
			"min":[
				-2.071295738220215,
				-2.7621657848358154,
				-0.19634199142456055
			],
			"type":"VEC3"
		},
		{
			"bufferView":67,
			"componentType":5126,
			"count":224,
			"type":"VEC3"
		},
		{
			"bufferView":68,
			"componentType":5126,
			"count":224,
			"type":"VEC2"
		},
		{
			"bufferView":69,
			"componentType":5123,
			"count":498,
			"type":"SCALAR"
		},
		{
			"bufferView":70,
			"componentType":5126,
			"count":22,
			"max":[
				2.999999761581421,
				0.125001460313797,
				4.5
			],
			"min":[
				-2.999999761581421,
				-0.125,
				-4.5
			],
			"type":"VEC3"
		},
		{
			"bufferView":71,
			"componentType":5126,
			"count":22,
			"type":"VEC3"
		},
		{
			"bufferView":72,
			"componentType":5126,
			"count":22,
			"type":"VEC2"
		},
		{
			"bufferView":73,
			"componentType":5123,
			"count":48,
			"type":"SCALAR"
		},
		{
			"bufferView":74,
			"componentType":5126,
			"count":70,
			"max":[
				2.999999761581421,
				0.125001460313797,
				4.5
			],
			"min":[
				-2.999999761581421,
				-0.125,
				-4.5
			],
			"type":"VEC3"
		},
		{
			"bufferView":75,
			"componentType":5126,
			"count":70,
			"type":"VEC3"
		},
		{
			"bufferView":76,
			"componentType":5126,
			"count":70,
			"type":"VEC2"
		},
		{
			"bufferView":77,
			"componentType":5123,
			"count":210,
			"type":"SCALAR"
		},
		{
			"bufferView":78,
			"componentType":5126,
			"count":28,
			"max":[
				2.999999761581421,
				-0.125,
				4.5
			],
			"min":[
				-2.999999761581421,
				-0.125,
				-4.5
			],
			"type":"VEC3"
		},
		{
			"bufferView":79,
			"componentType":5126,
			"count":28,
			"type":"VEC3"
		},
		{
			"bufferView":80,
			"componentType":5126,
			"count":28,
			"type":"VEC2"
		},
		{
			"bufferView":81,
			"componentType":5123,
			"count":90,
			"type":"SCALAR"
		},
		{
			"bufferView":82,
			"componentType":5126,
			"count":208,
			"max":[
				1.59408700466156,
				1.8749992847442627,
				1.743391513824463
			],
			"min":[
				-1.4659297466278076,
				-1.8750009536743164,
				-2.011545181274414
			],
			"type":"VEC3"
		},
		{
			"bufferView":83,
			"componentType":5126,
			"count":208,
			"type":"VEC3"
		},
		{
			"bufferView":84,
			"componentType":5126,
			"count":208,
			"type":"VEC2"
		},
		{
			"bufferView":85,
			"componentType":5123,
			"count":858,
			"type":"SCALAR"
		},
		{
			"bufferView":86,
			"componentType":5126,
			"count":150,
			"max":[
				1.4096568822860718,
				1.8749991655349731,
				1.743391513824463
			],
			"min":[
				-1.4659297466278076,
				-1.8750009536743164,
				-2.011545181274414
			],
			"type":"VEC3"
		},
		{
			"bufferView":87,
			"componentType":5126,
			"count":150,
			"type":"VEC3"
		},
		{
			"bufferView":88,
			"componentType":5126,
			"count":150,
			"type":"VEC2"
		},
		{
			"bufferView":89,
			"componentType":5123,
			"count":690,
			"type":"SCALAR"
		},
		{
			"bufferView":90,
			"componentType":5126,
			"count":202,
			"max":[
				1.4659286737442017,
				1.875,
				1.731790542602539
			],
			"min":[
				-1.5940877199172974,
				-1.8750019073486328,
				-2.0105786323547363
			],
			"type":"VEC3"
		},
		{
			"bufferView":91,
			"componentType":5126,
			"count":202,
			"type":"VEC3"
		},
		{
			"bufferView":92,
			"componentType":5126,
			"count":202,
			"type":"VEC2"
		},
		{
			"bufferView":93,
			"componentType":5123,
			"count":846,
			"type":"SCALAR"
		},
		{
			"bufferView":94,
			"componentType":5126,
			"count":156,
			"max":[
				1.4659286737442017,
				1.8749992847442627,
				1.73179030418396
			],
			"min":[
				-1.409657597541809,
				-1.8750019073486328,
				-2.0105786323547363
			],
			"type":"VEC3"
		},
		{
			"bufferView":95,
			"componentType":5126,
			"count":156,
			"type":"VEC3"
		},
		{
			"bufferView":96,
			"componentType":5126,
			"count":156,
			"type":"VEC2"
		},
		{
			"bufferView":97,
			"componentType":5123,
			"count":702,
			"type":"SCALAR"
		},
		{
			"bufferView":98,
			"componentType":5126,
			"count":314,
			"max":[
				2.097834825515747,
				2.3146917819976807,
				-0.7852196097373962
			],
			"min":[
				-2.0978353023529053,
				-2.7621657848358154,
				-1.1780519485473633
			],
			"type":"VEC3"
		},
		{
			"bufferView":99,
			"componentType":5126,
			"count":314,
			"type":"VEC3"
		},
		{
			"bufferView":100,
			"componentType":5126,
			"count":314,
			"type":"VEC2"
		},
		{
			"bufferView":101,
			"componentType":5123,
			"count":618,
			"type":"SCALAR"
		},
		{
			"bufferView":102,
			"componentType":5126,
			"count":12,
			"max":[
				2.911611318588257,
				0.75,
				4.411611557006836
			],
			"min":[
				-2.911611318588257,
				0.125,
				-4.5
			],
			"type":"VEC3"
		},
		{
			"bufferView":103,
			"componentType":5126,
			"count":12,
			"type":"VEC3"
		},
		{
			"bufferView":104,
			"componentType":5126,
			"count":12,
			"type":"VEC2"
		},
		{
			"bufferView":105,
			"componentType":5123,
			"count":18,
			"type":"SCALAR"
		},
		{
			"bufferView":106,
			"componentType":5126,
			"count":35,
			"max":[
				2.999999761581421,
				0.75,
				4.5
			],
			"min":[
				-2.999999761581421,
				0.125,
				-4.5
			],
			"type":"VEC3"
		},
		{
			"bufferView":107,
			"componentType":5126,
			"count":35,
			"type":"VEC3"
		},
		{
			"bufferView":108,
			"componentType":5126,
			"count":35,
			"type":"VEC2"
		},
		{
			"bufferView":109,
			"componentType":5123,
			"count":66,
			"type":"SCALAR"
		},
		{
			"bufferView":110,
			"componentType":5126,
			"count":40,
			"max":[
				1.8623758554458618,
				-0.11021620035171509,
				2.2366366386413574
			],
			"min":[
				-1.8623758554458618,
				-0.6612973213195801,
				-2.2366366386413574
			],
			"type":"VEC3"
		},
		{
			"bufferView":111,
			"componentType":5126,
			"count":40,
			"type":"VEC3"
		},
		{
			"bufferView":112,
			"componentType":5126,
			"count":40,
			"type":"VEC2"
		},
		{
			"bufferView":113,
			"componentType":5123,
			"count":72,
			"type":"SCALAR"
		},
		{
			"bufferView":114,
			"componentType":5126,
			"count":8,
			"max":[
				1.8623758554458618,
				-0.6612973213195801,
				2.2366366386413574
			],
			"min":[
				-1.8623758554458618,
				-0.6612973213195801,
				-2.2366366386413574
			],
			"type":"VEC3"
		},
		{
			"bufferView":115,
			"componentType":5126,
			"count":8,
			"type":"VEC3"
		},
		{
			"bufferView":116,
			"componentType":5126,
			"count":8,
			"type":"VEC2"
		},
		{
			"bufferView":117,
			"componentType":5123,
			"count":24,
			"type":"SCALAR"
		},
		{
			"bufferView":118,
			"componentType":5126,
			"count":927,
			"max":[
				2.4530913829803467,
				2.8239448070526123,
				0.2052229940891266
			],
			"min":[
				-2.4530913829803467,
				-1.4373736381530762,
				-0.20522338151931763
			],
			"type":"VEC3"
		},
		{
			"bufferView":119,
			"componentType":5126,
			"count":927,
			"type":"VEC3"
		},
		{
			"bufferView":120,
			"componentType":5126,
			"count":927,
			"type":"VEC2"
		},
		{
			"bufferView":121,
			"componentType":5123,
			"count":5040,
			"type":"SCALAR"
		},
		{
			"bufferView":122,
			"componentType":5126,
			"count":137,
			"max":[
				0.32047462463378906,
				0.32750093936920166,
				0.33667826652526855
			],
			"min":[
				-0.32047462463378906,
				-0.32750093936920166,
				-0.33667826652526855
			],
			"type":"VEC3"
		},
		{
			"bufferView":123,
			"componentType":5126,
			"count":137,
			"type":"VEC3"
		},
		{
			"bufferView":124,
			"componentType":5126,
			"count":137,
			"type":"VEC2"
		},
		{
			"bufferView":125,
			"componentType":5123,
			"count":276,
			"type":"SCALAR"
		},
		{
			"bufferView":126,
			"componentType":5126,
			"count":74674,
			"max":[
				0.03536146134138107,
				19.866783142089844,
				-3.5031991004943848
			],
			"min":[
				-0.027049710974097252,
				11.567391395568848,
				-15.018728256225586
			],
			"type":"VEC3"
		},
		{
			"bufferView":127,
			"componentType":5126,
			"count":74674,
			"type":"VEC3"
		},
		{
			"bufferView":128,
			"componentType":5126,
			"count":74674,
			"type":"VEC2"
		},
		{
			"bufferView":129,
			"componentType":5125,
			"count":447474,
			"type":"SCALAR"
		},
		{
			"bufferView":130,
			"componentType":5126,
			"count":80,
			"max":[
				0.26229819655418396,
				1.3702681064605713,
				0.4490223824977875
			],
			"min":[
				-0.26229819655418396,
				-1.3361263275146484,
				-0.30457019805908203
			],
			"type":"VEC3"
		},
		{
			"bufferView":131,
			"componentType":5126,
			"count":80,
			"type":"VEC3"
		},
		{
			"bufferView":132,
			"componentType":5126,
			"count":80,
			"type":"VEC2"
		},
		{
			"bufferView":133,
			"componentType":5123,
			"count":156,
			"type":"SCALAR"
		},
		{
			"bufferView":134,
			"componentType":5126,
			"count":167,
			"max":[
				0.25827351212501526,
				0.4652249217033386,
				6.9761643409729
			],
			"min":[
				-0.25828132033348083,
				-0.48789486289024353,
				-7.05841588973999
			],
			"type":"VEC3"
		},
		{
			"bufferView":135,
			"componentType":5126,
			"count":167,
			"type":"VEC3"
		},
		{
			"bufferView":136,
			"componentType":5126,
			"count":167,
			"type":"VEC2"
		},
		{
			"bufferView":137,
			"componentType":5123,
			"count":474,
			"type":"SCALAR"
		},
		{
			"bufferView":138,
			"componentType":5126,
			"count":50,
			"max":[
				0.23194432258605957,
				0.07485935091972351,
				0.20002210140228271
			],
			"min":[
				-0.23194432258605957,
				-0.07485935091972351,
				-0.20002210140228271
			],
			"type":"VEC3"
		},
		{
			"bufferView":139,
			"componentType":5126,
			"count":50,
			"type":"VEC3"
		},
		{
			"bufferView":140,
			"componentType":5126,
			"count":50,
			"type":"VEC2"
		},
		{
			"bufferView":141,
			"componentType":5123,
			"count":132,
			"type":"SCALAR"
		},
		{
			"bufferView":142,
			"componentType":5126,
			"count":90,
			"max":[
				0.1556563377380371,
				0.13065341114997864,
				0.09444364160299301
			],
			"min":[
				-0.15565632283687592,
				-0.13065341114997864,
				-0.1888873428106308
			],
			"type":"VEC3"
		},
		{
			"bufferView":143,
			"componentType":5126,
			"count":90,
			"type":"VEC3"
		},
		{
			"bufferView":144,
			"componentType":5126,
			"count":90,
			"type":"VEC2"
		},
		{
			"bufferView":145,
			"componentType":5123,
			"count":126,
			"type":"SCALAR"
		},
		{
			"bufferView":146,
			"componentType":5126,
			"count":90,
			"max":[
				0.1556563377380371,
				0.13065341114997864,
				0.1888873428106308
			],
			"min":[
				-0.15565632283687592,
				-0.13065341114997864,
				-0.0944436639547348
			],
			"type":"VEC3"
		},
		{
			"bufferView":147,
			"componentType":5126,
			"count":90,
			"type":"VEC3"
		},
		{
			"bufferView":148,
			"componentType":5126,
			"count":90,
			"type":"VEC2"
		},
		{
			"bufferView":149,
			"componentType":5123,
			"count":126,
			"type":"SCALAR"
		},
		{
			"bufferView":150,
			"componentType":5126,
			"count":100,
			"max":[
				0.05024361610412598,
				0.06553363800048828,
				0.04687248915433884
			],
			"min":[
				-0.05024361610412598,
				-0.06553363800048828,
				-0.04687248915433884
			],
			"type":"VEC3"
		},
		{
			"bufferView":151,
			"componentType":5126,
			"count":100,
			"type":"VEC3"
		},
		{
			"bufferView":152,
			"componentType":5126,
			"count":100,
			"type":"VEC2"
		},
		{
			"bufferView":153,
			"componentType":5123,
			"count":420,
			"type":"SCALAR"
		},
		{
			"bufferView":154,
			"componentType":5126,
			"count":75,
			"max":[
				0.23194432258605957,
				0.07485935091972351,
				0.20002210140228271
			],
			"min":[
				-0.23194432258605957,
				-0.07485935091972351,
				-0.20002210140228271
			],
			"type":"VEC3"
		},
		{
			"bufferView":155,
			"componentType":5126,
			"count":75,
			"type":"VEC3"
		},
		{
			"bufferView":156,
			"componentType":5126,
			"count":75,
			"type":"VEC2"
		},
		{
			"bufferView":157,
			"componentType":5123,
			"count":276,
			"type":"SCALAR"
		},
		{
			"bufferView":158,
			"componentType":5126,
			"count":50,
			"max":[
				0.23353052139282227,
				0.18768835067749023,
				0.24323606491088867
			],
			"min":[
				-0.23353052139282227,
				-0.18768835067749023,
				-0.24323606491088867
			],
			"type":"VEC3"
		},
		{
			"bufferView":159,
			"componentType":5126,
			"count":50,
			"type":"VEC3"
		},
		{
			"bufferView":160,
			"componentType":5126,
			"count":50,
			"type":"VEC2"
		},
		{
			"bufferView":161,
			"componentType":5126,
			"count":175,
			"max":[
				0.17928126454353333,
				2.216986894607544,
				0.19303321838378906
			],
			"min":[
				-0.17928126454353333,
				-2.216986894607544,
				-0.19303321838378906
			],
			"type":"VEC3"
		},
		{
			"bufferView":162,
			"componentType":5126,
			"count":175,
			"type":"VEC3"
		},
		{
			"bufferView":163,
			"componentType":5126,
			"count":175,
			"type":"VEC2"
		},
		{
			"bufferView":164,
			"componentType":5123,
			"count":492,
			"type":"SCALAR"
		},
		{
			"bufferView":165,
			"componentType":5126,
			"count":204,
			"max":[
				0.0625,
				0.32703688740730286,
				0.0625
			],
			"min":[
				-0.23864853382110596,
				-6.148809432983398,
				-0.0625
			],
			"type":"VEC3"
		},
		{
			"bufferView":166,
			"componentType":5126,
			"count":204,
			"type":"VEC3"
		},
		{
			"bufferView":167,
			"componentType":5126,
			"count":204,
			"type":"VEC2"
		},
		{
			"bufferView":168,
			"componentType":5123,
			"count":618,
			"type":"SCALAR"
		},
		{
			"bufferView":169,
			"componentType":5126,
			"count":8144,
			"max":[
				0.03125,
				1.0406861305236816,
				0.03125
			],
			"min":[
				-0.03125,
				-0.013531647622585297,
				-0.03125
			],
			"type":"VEC3"
		},
		{
			"bufferView":170,
			"componentType":5126,
			"count":8144,
			"type":"VEC3"
		},
		{
			"bufferView":171,
			"componentType":5126,
			"count":8144,
			"type":"VEC2"
		},
		{
			"bufferView":172,
			"componentType":5123,
			"count":48465,
			"type":"SCALAR"
		},
		{
			"bufferView":173,
			"componentType":5126,
			"count":46176,
			"max":[
				0.28060057759284973,
				0.4236406981945038,
				2.738595962524414
			],
			"min":[
				-0.2809625566005707,
				0.41388049721717834,
				-2.737642765045166
			],
			"type":"VEC3"
		},
		{
			"bufferView":174,
			"componentType":5126,
			"count":46176,
			"type":"VEC3"
		},
		{
			"bufferView":175,
			"componentType":5126,
			"count":46176,
			"type":"VEC2"
		},
		{
			"bufferView":176,
			"componentType":5123,
			"count":276480,
			"type":"SCALAR"
		},
		{
			"bufferView":177,
			"componentType":5126,
			"count":46176,
			"max":[
				0.27375131845474243,
				0.004880309104919434,
				2.6540958881378174
			],
			"min":[
				-0.287811815738678,
				-0.004879891872406006,
				-2.8221428394317627
			],
			"type":"VEC3"
		},
		{
			"bufferView":178,
			"componentType":5126,
			"count":46176,
			"type":"VEC3"
		},
		{
			"bufferView":179,
			"componentType":5126,
			"count":46176,
			"type":"VEC2"
		},
		{
			"bufferView":180,
			"componentType":5126,
			"count":8144,
			"max":[
				0.03125,
				1.0406861305236816,
				0.03125
			],
			"min":[
				-0.03125,
				-0.013531647622585297,
				-0.03125
			],
			"type":"VEC3"
		},
		{
			"bufferView":181,
			"componentType":5126,
			"count":8144,
			"type":"VEC3"
		},
		{
			"bufferView":182,
			"componentType":5126,
			"count":8144,
			"type":"VEC2"
		},
		{
			"bufferView":183,
			"componentType":5126,
			"count":46176,
			"max":[
				0.27375131845474243,
				0.004880309104919434,
				2.6540958881378174
			],
			"min":[
				-0.287811815738678,
				-0.004879891872406006,
				-2.8221428394317627
			],
			"type":"VEC3"
		},
		{
			"bufferView":184,
			"componentType":5126,
			"count":46176,
			"type":"VEC3"
		},
		{
			"bufferView":185,
			"componentType":5126,
			"count":46176,
			"type":"VEC2"
		},
		{
			"bufferView":186,
			"componentType":5126,
			"count":84,
			"max":[
				0.11103659868240356,
				0.2667240500450134,
				0.1480107307434082
			],
			"min":[
				-0.09866762161254883,
				-0.08335089683532715,
				-0.1480107307434082
			],
			"type":"VEC3"
		},
		{
			"bufferView":187,
			"componentType":5126,
			"count":84,
			"type":"VEC3"
		},
		{
			"bufferView":188,
			"componentType":5126,
			"count":84,
			"type":"VEC2"
		},
		{
			"bufferView":189,
			"componentType":5123,
			"count":228,
			"type":"SCALAR"
		},
		{
			"bufferView":190,
			"componentType":5126,
			"count":1138,
			"max":[
				1.2625000476837158,
				0.26249927282333374,
				1.2625000476837158
			],
			"min":[
				-1.2625000476837158,
				-0.26249927282333374,
				-1.2625000476837158
			],
			"type":"VEC3"
		},
		{
			"bufferView":191,
			"componentType":5126,
			"count":1138,
			"type":"VEC3"
		},
		{
			"bufferView":192,
			"componentType":5126,
			"count":1138,
			"type":"VEC2"
		},
		{
			"bufferView":193,
			"componentType":5123,
			"count":3456,
			"type":"SCALAR"
		},
		{
			"bufferView":194,
			"componentType":5126,
			"count":528,
			"max":[
				1.2381305694580078,
				0.25,
				1.2381305694580078
			],
			"min":[
				-1.2381304502487183,
				-0.25,
				-1.2381305694580078
			],
			"type":"VEC3"
		},
		{
			"bufferView":195,
			"componentType":5126,
			"count":528,
			"type":"VEC3"
		},
		{
			"bufferView":196,
			"componentType":5126,
			"count":528,
			"type":"VEC2"
		},
		{
			"bufferView":197,
			"componentType":5123,
			"count":2880,
			"type":"SCALAR"
		},
		{
			"bufferView":198,
			"componentType":5126,
			"count":83,
			"max":[
				0.11103659868240356,
				0.2667240500450134,
				0.1480107307434082
			],
			"min":[
				-0.09866762161254883,
				-0.08335089683532715,
				-0.1480107307434082
			],
			"type":"VEC3"
		},
		{
			"bufferView":199,
			"componentType":5126,
			"count":83,
			"type":"VEC3"
		},
		{
			"bufferView":200,
			"componentType":5126,
			"count":83,
			"type":"VEC2"
		},
		{
			"bufferView":201,
			"componentType":5123,
			"count":228,
			"type":"SCALAR"
		},
		{
			"bufferView":202,
			"componentType":5126,
			"count":32,
			"max":[
				0.710853636264801,
				0.2790548503398895,
				1.073268175125122
			],
			"min":[
				-0.7110203504562378,
				-0.3036346733570099,
				-1.0732612609863281
			],
			"type":"VEC3"
		},
		{
			"bufferView":203,
			"componentType":5126,
			"count":32,
			"type":"VEC3"
		},
		{
			"bufferView":204,
			"componentType":5126,
			"count":32,
			"type":"VEC2"
		},
		{
			"bufferView":205,
			"componentType":5123,
			"count":60,
			"type":"SCALAR"
		},
		{
			"bufferView":206,
			"componentType":5126,
			"count":82,
			"max":[
				0.6863163709640503,
				0.18218070268630981,
				1.5025638341903687
			],
			"min":[
				0.17616915702819824,
				-0.3036346733570099,
				-1.0732598304748535
			],
			"type":"VEC3"
		},
		{
			"bufferView":207,
			"componentType":5126,
			"count":82,
			"type":"VEC3"
		},
		{
			"bufferView":208,
			"componentType":5126,
			"count":82,
			"type":"VEC2"
		},
		{
			"bufferView":209,
			"componentType":5123,
			"count":138,
			"type":"SCALAR"
		},
		{
			"bufferView":210,
			"componentType":5126,
			"count":8,
			"max":[
				0.710853636264801,
				0.27905482053756714,
				-1.0732598304748535
			],
			"min":[
				-0.7110203504562378,
				-0.3036346435546875,
				-1.0732612609863281
			],
			"type":"VEC3"
		},
		{
			"bufferView":211,
			"componentType":5126,
			"count":8,
			"type":"VEC3"
		},
		{
			"bufferView":212,
			"componentType":5126,
			"count":8,
			"type":"VEC2"
		},
		{
			"bufferView":213,
			"componentType":5123,
			"count":18,
			"type":"SCALAR"
		},
		{
			"bufferView":214,
			"componentType":5126,
			"count":20,
			"max":[
				1.3184000253677368,
				0.7008811235427856,
				0.24642729759216309
			],
			"min":[
				-1.3184000253677368,
				-0.7508546113967896,
				-0.07197260856628418
			],
			"type":"VEC3"
		},
		{
			"bufferView":215,
			"componentType":5126,
			"count":20,
			"type":"VEC3"
		},
		{
			"bufferView":216,
			"componentType":5126,
			"count":20,
			"type":"VEC2"
		},
		{
			"bufferView":217,
			"componentType":5123,
			"count":30,
			"type":"SCALAR"
		},
		{
			"bufferView":218,
			"componentType":5126,
			"count":503,
			"max":[
				1.3184000253677368,
				0.7508544325828552,
				0.29642730951309204
			],
			"min":[
				-1.3184000253677368,
				-0.7508546113967896,
				-0.48036491870880127
			],
			"type":"VEC3"
		},
		{
			"bufferView":219,
			"componentType":5126,
			"count":503,
			"type":"VEC3"
		},
		{
			"bufferView":220,
			"componentType":5126,
			"count":503,
			"type":"VEC2"
		},
		{
			"bufferView":221,
			"componentType":5123,
			"count":1014,
			"type":"SCALAR"
		},
		{
			"bufferView":222,
			"componentType":5126,
			"count":5400,
			"max":[
				1.9277626276016235,
				0.38598668575286865,
				0.011395931243896484
			],
			"min":[
				-0.006943121552467346,
				-0.004603808280080557,
				-0.011394023895263672
			],
			"type":"VEC3"
		},
		{
			"bufferView":223,
			"componentType":5126,
			"count":5400,
			"type":"VEC3"
		},
		{
			"bufferView":224,
			"componentType":5126,
			"count":5400,
			"type":"VEC2"
		},
		{
			"bufferView":225,
			"componentType":5123,
			"count":7560,
			"type":"SCALAR"
		},
		{
			"bufferView":226,
			"componentType":5126,
			"count":5400,
			"max":[
				1.9277626276016235,
				0.38598668575286865,
				0.011395931243896484
			],
			"min":[
				-0.006943121552467346,
				-0.004603808280080557,
				-0.011394023895263672
			],
			"type":"VEC3"
		},
		{
			"bufferView":227,
			"componentType":5126,
			"count":5400,
			"type":"VEC3"
		},
		{
			"bufferView":228,
			"componentType":5126,
			"count":5400,
			"type":"VEC2"
		},
		{
			"bufferView":229,
			"componentType":5126,
			"count":2880,
			"max":[
				0.6832338571548462,
				0.004605874419212341,
				0.011394023895263672
			],
			"min":[
				-0.006946331821382046,
				-0.3859865665435791,
				-0.012278111651539803
			],
			"type":"VEC3"
		},
		{
			"bufferView":230,
			"componentType":5126,
			"count":2880,
			"type":"VEC3"
		},
		{
			"bufferView":231,
			"componentType":5126,
			"count":2880,
			"type":"VEC2"
		},
		{
			"bufferView":232,
			"componentType":5123,
			"count":4032,
			"type":"SCALAR"
		},
		{
			"bufferView":233,
			"componentType":5126,
			"count":2880,
			"max":[
				0.6832338571548462,
				0.004605874419212341,
				0.011394023895263672
			],
			"min":[
				-0.006946331821382046,
				-0.3859865665435791,
				-0.012278111651539803
			],
			"type":"VEC3"
		},
		{
			"bufferView":234,
			"componentType":5126,
			"count":2880,
			"type":"VEC3"
		},
		{
			"bufferView":235,
			"componentType":5126,
			"count":2880,
			"type":"VEC2"
		},
		{
			"bufferView":236,
			"componentType":5126,
			"count":2880,
			"max":[
				0.6832338571548462,
				0.004605874419212341,
				0.011394023895263672
			],
			"min":[
				-0.006946331821382046,
				-0.3859865665435791,
				-0.012278111651539803
			],
			"type":"VEC3"
		},
		{
			"bufferView":237,
			"componentType":5126,
			"count":2880,
			"type":"VEC3"
		},
		{
			"bufferView":238,
			"componentType":5126,
			"count":2880,
			"type":"VEC2"
		},
		{
			"bufferView":239,
			"componentType":5126,
			"count":2880,
			"max":[
				0.6832338571548462,
				0.004605874419212341,
				0.011394023895263672
			],
			"min":[
				-0.006946331821382046,
				-0.3859865665435791,
				-0.012278111651539803
			],
			"type":"VEC3"
		},
		{
			"bufferView":240,
			"componentType":5126,
			"count":2880,
			"type":"VEC3"
		},
		{
			"bufferView":241,
			"componentType":5126,
			"count":2880,
			"type":"VEC2"
		},
		{
			"bufferView":242,
			"componentType":5126,
			"count":426,
			"max":[
				1.4000005722045898,
				0.7514649629592896,
				2.4000000953674316
			],
			"min":[
				-1.3999998569488525,
				-1.127207636833191,
				-0.40000009536743164
			],
			"type":"VEC3"
		},
		{
			"bufferView":243,
			"componentType":5126,
			"count":426,
			"type":"VEC3"
		},
		{
			"bufferView":244,
			"componentType":5126,
			"count":426,
			"type":"VEC2"
		},
		{
			"bufferView":245,
			"componentType":5123,
			"count":1014,
			"type":"SCALAR"
		},
		{
			"bufferView":246,
			"componentType":5126,
			"count":40,
			"max":[
				1.3230897188186646,
				0.5507981181144714,
				0.2719573676586151
			],
			"min":[
				-1.3224427700042725,
				0.1058085635304451,
				-0.40125003457069397
			],
			"type":"VEC3"
		},
		{
			"bufferView":247,
			"componentType":5126,
			"count":40,
			"type":"VEC3"
		},
		{
			"bufferView":248,
			"componentType":5126,
			"count":40,
			"type":"VEC2"
		},
		{
			"bufferView":249,
			"componentType":5123,
			"count":84,
			"type":"SCALAR"
		},
		{
			"bufferView":250,
			"componentType":5126,
			"count":769,
			"max":[
				1.3349487781524658,
				0.5757981538772583,
				0.3063455820083618
			],
			"min":[
				-1.3338851928710938,
				0.08078628033399582,
				-0.40125003457069397
			],
			"type":"VEC3"
		},
		{
			"bufferView":251,
			"componentType":5126,
			"count":769,
			"type":"VEC3"
		},
		{
			"bufferView":252,
			"componentType":5126,
			"count":769,
			"type":"VEC2"
		},
		{
			"bufferView":253,
			"componentType":5123,
			"count":1224,
			"type":"SCALAR"
		},
		{
			"bufferView":254,
			"componentType":5126,
			"count":60,
			"max":[
				1.3184001445770264,
				0.6754303574562073,
				2.4000000953674316
			],
			"min":[
				-1.319016456604004,
				-1.127207636833191,
				-0.32679224014282227
			],
			"type":"VEC3"
		},
		{
			"bufferView":255,
			"componentType":5126,
			"count":60,
			"type":"VEC3"
		},
		{
			"bufferView":256,
			"componentType":5126,
			"count":60,
			"type":"VEC2"
		},
		{
			"bufferView":257,
			"componentType":5123,
			"count":138,
			"type":"SCALAR"
		},
		{
			"bufferView":258,
			"componentType":5126,
			"count":888,
			"max":[
				0.07649993896484375,
				3.264592170715332,
				0.6333097219467163
			],
			"min":[
				-0.07649993896484375,
				-0.4794999957084656,
				-0.6333096027374268
			],
			"type":"VEC3"
		},
		{
			"bufferView":259,
			"componentType":5126,
			"count":888,
			"type":"VEC3"
		},
		{
			"bufferView":260,
			"componentType":5123,
			"count":4200,
			"type":"SCALAR"
		},
		{
			"bufferView":261,
			"componentType":5126,
			"count":12,
			"max":[
				2.4999990463256836,
				0.125,
				3.7499847412109375
			],
			"min":[
				-2.4999990463256836,
				-0.1250019073486328,
				-3.7625694274902344
			],
			"type":"VEC3"
		},
		{
			"bufferView":262,
			"componentType":5126,
			"count":12,
			"type":"VEC3"
		},
		{
			"bufferView":263,
			"componentType":5126,
			"count":12,
			"type":"VEC2"
		},
		{
			"bufferView":264,
			"componentType":5123,
			"count":30,
			"type":"SCALAR"
		},
		{
			"bufferView":265,
			"componentType":5126,
			"count":4,
			"max":[
				2.4999990463256836,
				0.125,
				3.7499847412109375
			],
			"min":[
				-2.4999990463256836,
				0.125,
				-3.7499847412109375
			],
			"type":"VEC3"
		},
		{
			"bufferView":266,
			"componentType":5126,
			"count":4,
			"type":"VEC3"
		},
		{
			"bufferView":267,
			"componentType":5126,
			"count":4,
			"type":"VEC2"
		},
		{
			"bufferView":268,
			"componentType":5123,
			"count":6,
			"type":"SCALAR"
		},
		{
			"bufferView":269,
			"componentType":5126,
			"count":2,
			"max":[
				0.5416666666666666
			],
			"min":[
				0.041666666666666664
			],
			"type":"SCALAR"
		},
		{
			"bufferView":270,
			"componentType":5126,
			"count":2,
			"type":"VEC3"
		},
		{
			"bufferView":271,
			"componentType":5126,
			"count":13,
			"max":[
				0.5416666666666666
			],
			"min":[
				0.041666666666666664
			],
			"type":"SCALAR"
		},
		{
			"bufferView":272,
			"componentType":5126,
			"count":13,
			"type":"VEC4"
		},
		{
			"bufferView":273,
			"componentType":5126,
			"count":13,
			"type":"VEC3"
		}
	],
	"bufferViews":[
		{
			"buffer":0,
			"byteLength":888,
			"byteOffset":0,
			"target":34962
		},
		{
			"buffer":0,
			"byteLength":888,
			"byteOffset":888,
			"target":34962
		},
		{
			"buffer":0,
			"byteLength":592,
			"byteOffset":1776,
			"target":34962
		},
		{
			"buffer":0,
			"byteLength":384,
			"byteOffset":2368,
			"target":34963
		},
		{
			"buffer":0,
			"byteLength":264,
			"byteOffset":2752,
			"target":34962
		},
		{
			"buffer":0,
			"byteLength":264,
			"byteOffset":3016,
			"target":34962
		},
		{
			"buffer":0,
			"byteLength":176,
			"byteOffset":3280,
			"target":34962
		},
		{
			"buffer":0,
			"byteLength":120,
			"byteOffset":3456,
			"target":34963
		},
		{
			"buffer":0,
			"byteLength":672,
			"byteOffset":3576,
			"target":34962
		},
		{
			"buffer":0,
			"byteLength":672,
			"byteOffset":4248,
			"target":34962
		},
		{
			"buffer":0,
			"byteLength":448,
			"byteOffset":4920,
			"target":34962
		},
		{
			"buffer":0,
			"byteLength":300,
			"byteOffset":5368,
			"target":34963
		},
		{
			"buffer":0,
			"byteLength":300,
			"byteOffset":5668,
			"target":34962
		},
		{
			"buffer":0,
			"byteLength":300,
			"byteOffset":5968,
			"target":34962
		},
		{
			"buffer":0,
			"byteLength":200,
			"byteOffset":6268,
			"target":34962
		},
		{
			"buffer":0,
			"byteLength":138,
			"byteOffset":6468,
			"target":34963
		},
		{
			"buffer":0,
			"byteLength":300,
			"byteOffset":6608,
			"target":34962
		},
		{
			"buffer":0,
			"byteLength":300,
			"byteOffset":6908,
			"target":34962
		},
		{
			"buffer":0,
			"byteLength":200,
			"byteOffset":7208,
			"target":34962
		},
		{
			"buffer":0,
			"byteLength":138,
			"byteOffset":7408,
			"target":34963
		},
		{
			"buffer":0,
			"byteLength":648,
			"byteOffset":7548,
			"target":34962
		},
		{
			"buffer":0,
			"byteLength":648,
			"byteOffset":8196,
			"target":34962
		},
		{
			"buffer":0,
			"byteLength":432,
			"byteOffset":8844,
			"target":34962
		},
		{
			"buffer":0,
			"byteLength":438,
			"byteOffset":9276,
			"target":34963
		},
		{
			"buffer":0,
			"byteLength":300,
			"byteOffset":9716,
			"target":34962
		},
		{
			"buffer":0,
			"byteLength":300,
			"byteOffset":10016,
			"target":34962
		},
		{
			"buffer":0,
			"byteLength":200,
			"byteOffset":10316,
			"target":34962
		},
		{
			"buffer":0,
			"byteLength":408,
			"byteOffset":10516,
			"target":34962
		},
		{
			"buffer":0,
			"byteLength":408,
			"byteOffset":10924,
			"target":34962
		},
		{
			"buffer":0,
			"byteLength":272,
			"byteOffset":11332,
			"target":34962
		},
		{
			"buffer":0,
			"byteLength":156,
			"byteOffset":11604,
			"target":34963
		},
		{
			"buffer":0,
			"byteLength":240,
			"byteOffset":11760,
			"target":34962
		},
		{
			"buffer":0,
			"byteLength":240,
			"byteOffset":12000,
			"target":34962
		},
		{
			"buffer":0,
			"byteLength":160,
			"byteOffset":12240,
			"target":34962
		},
		{
			"buffer":0,
			"byteLength":108,
			"byteOffset":12400,
			"target":34963
		},
		{
			"buffer":0,
			"byteLength":864,
			"byteOffset":12508,
			"target":34962
		},
		{
			"buffer":0,
			"byteLength":864,
			"byteOffset":13372,
			"target":34962
		},
		{
			"buffer":0,
			"byteLength":576,
			"byteOffset":14236,
			"target":34962
		},
		{
			"buffer":0,
			"byteLength":372,
			"byteOffset":14812,
			"target":34963
		},
		{
			"buffer":0,
			"byteLength":264,
			"byteOffset":15184,
			"target":34962
		},
		{
			"buffer":0,
			"byteLength":264,
			"byteOffset":15448,
			"target":34962
		},
		{
			"buffer":0,
			"byteLength":176,
			"byteOffset":15712,
			"target":34962
		},
		{
			"buffer":0,
			"byteLength":672,
			"byteOffset":15888,
			"target":34962
		},
		{
			"buffer":0,
			"byteLength":672,
			"byteOffset":16560,
			"target":34962
		},
		{
			"buffer":0,
			"byteLength":448,
			"byteOffset":17232,
			"target":34962
		},
		{
			"buffer":0,
			"byteLength":300,
			"byteOffset":17680,
			"target":34963
		},
		{
			"buffer":0,
			"byteLength":2496,
			"byteOffset":17980,
			"target":34962
		},
		{
			"buffer":0,
			"byteLength":2496,
			"byteOffset":20476,
			"target":34962
		},
		{
			"buffer":0,
			"byteLength":1664,
			"byteOffset":22972,
			"target":34962
		},
		{
			"buffer":0,
			"byteLength":1140,
			"byteOffset":24636,
			"target":34963
		},
		{
			"buffer":0,
			"byteLength":288,
			"byteOffset":25776,
			"target":34962
		},
		{
			"buffer":0,
			"byteLength":288,
			"byteOffset":26064,
			"target":34962
		},
		{
			"buffer":0,
			"byteLength":192,
			"byteOffset":26352,
			"target":34962
		},
		{
			"buffer":0,
			"byteLength":72,
			"byteOffset":26544,
			"target":34963
		},
		{
			"buffer":0,
			"byteLength":288,
			"byteOffset":26616,
			"target":34962
		},
		{
			"buffer":0,
			"byteLength":288,
			"byteOffset":26904,
			"target":34962
		},
		{
			"buffer":0,
			"byteLength":192,
			"byteOffset":27192,
			"target":34962
		},
		{
			"buffer":0,
			"byteLength":72,
			"byteOffset":27384,
			"target":34963
		},
		{
			"buffer":0,
			"byteLength":288,
			"byteOffset":27456,
			"target":34962
		},
		{
			"buffer":0,
			"byteLength":288,
			"byteOffset":27744,
			"target":34962
		},
		{
			"buffer":0,
			"byteLength":192,
			"byteOffset":28032,
			"target":34962
		},
		{
			"buffer":0,
			"byteLength":72,
			"byteOffset":28224,
			"target":34963
		},
		{
			"buffer":0,
			"byteLength":4128,
			"byteOffset":28296,
			"target":34962
		},
		{
			"buffer":0,
			"byteLength":4128,
			"byteOffset":32424,
			"target":34962
		},
		{
			"buffer":0,
			"byteLength":2752,
			"byteOffset":36552,
			"target":34962
		},
		{
			"buffer":0,
			"byteLength":2724,
			"byteOffset":39304,
			"target":34963
		},
		{
			"buffer":0,
			"byteLength":2688,
			"byteOffset":42028,
			"target":34962
		},
		{
			"buffer":0,
			"byteLength":2688,
			"byteOffset":44716,
			"target":34962
		},
		{
			"buffer":0,
			"byteLength":1792,
			"byteOffset":47404,
			"target":34962
		},
		{
			"buffer":0,
			"byteLength":996,
			"byteOffset":49196,
			"target":34963
		},
		{
			"buffer":0,
			"byteLength":264,
			"byteOffset":50192,
			"target":34962
		},
		{
			"buffer":0,
			"byteLength":264,
			"byteOffset":50456,
			"target":34962
		},
		{
			"buffer":0,
			"byteLength":176,
			"byteOffset":50720,
			"target":34962
		},
		{
			"buffer":0,
			"byteLength":96,
			"byteOffset":50896,
			"target":34963
		},
		{
			"buffer":0,
			"byteLength":840,
			"byteOffset":50992,
			"target":34962
		},
		{
			"buffer":0,
			"byteLength":840,
			"byteOffset":51832,
			"target":34962
		},
		{
			"buffer":0,
			"byteLength":560,
			"byteOffset":52672,
			"target":34962
		},
		{
			"buffer":0,
			"byteLength":420,
			"byteOffset":53232,
			"target":34963
		},
		{
			"buffer":0,
			"byteLength":336,
			"byteOffset":53652,
			"target":34962
		},
		{
			"buffer":0,
			"byteLength":336,
			"byteOffset":53988,
			"target":34962
		},
		{
			"buffer":0,
			"byteLength":224,
			"byteOffset":54324,
			"target":34962
		},
		{
			"buffer":0,
			"byteLength":180,
			"byteOffset":54548,
			"target":34963
		},
		{
			"buffer":0,
			"byteLength":2496,
			"byteOffset":54728,
			"target":34962
		},
		{
			"buffer":0,
			"byteLength":2496,
			"byteOffset":57224,
			"target":34962
		},
		{
			"buffer":0,
			"byteLength":1664,
			"byteOffset":59720,
			"target":34962
		},
		{
			"buffer":0,
			"byteLength":1716,
			"byteOffset":61384,
			"target":34963
		},
		{
			"buffer":0,
			"byteLength":1800,
			"byteOffset":63100,
			"target":34962
		},
		{
			"buffer":0,
			"byteLength":1800,
			"byteOffset":64900,
			"target":34962
		},
		{
			"buffer":0,
			"byteLength":1200,
			"byteOffset":66700,
			"target":34962
		},
		{
			"buffer":0,
			"byteLength":1380,
			"byteOffset":67900,
			"target":34963
		},
		{
			"buffer":0,
			"byteLength":2424,
			"byteOffset":69280,
			"target":34962
		},
		{
			"buffer":0,
			"byteLength":2424,
			"byteOffset":71704,
			"target":34962
		},
		{
			"buffer":0,
			"byteLength":1616,
			"byteOffset":74128,
			"target":34962
		},
		{
			"buffer":0,
			"byteLength":1692,
			"byteOffset":75744,
			"target":34963
		},
		{
			"buffer":0,
			"byteLength":1872,
			"byteOffset":77436,
			"target":34962
		},
		{
			"buffer":0,
			"byteLength":1872,
			"byteOffset":79308,
			"target":34962
		},
		{
			"buffer":0,
			"byteLength":1248,
			"byteOffset":81180,
			"target":34962
		},
		{
			"buffer":0,
			"byteLength":1404,
			"byteOffset":82428,
			"target":34963
		},
		{
			"buffer":0,
			"byteLength":3768,
			"byteOffset":83832,
			"target":34962
		},
		{
			"buffer":0,
			"byteLength":3768,
			"byteOffset":87600,
			"target":34962
		},
		{
			"buffer":0,
			"byteLength":2512,
			"byteOffset":91368,
			"target":34962
		},
		{
			"buffer":0,
			"byteLength":1236,
			"byteOffset":93880,
			"target":34963
		},
		{
			"buffer":0,
			"byteLength":144,
			"byteOffset":95116,
			"target":34962
		},
		{
			"buffer":0,
			"byteLength":144,
			"byteOffset":95260,
			"target":34962
		},
		{
			"buffer":0,
			"byteLength":96,
			"byteOffset":95404,
			"target":34962
		},
		{
			"buffer":0,
			"byteLength":36,
			"byteOffset":95500,
			"target":34963
		},
		{
			"buffer":0,
			"byteLength":420,
			"byteOffset":95536,
			"target":34962
		},
		{
			"buffer":0,
			"byteLength":420,
			"byteOffset":95956,
			"target":34962
		},
		{
			"buffer":0,
			"byteLength":280,
			"byteOffset":96376,
			"target":34962
		},
		{
			"buffer":0,
			"byteLength":132,
			"byteOffset":96656,
			"target":34963
		},
		{
			"buffer":0,
			"byteLength":480,
			"byteOffset":96788,
			"target":34962
		},
		{
			"buffer":0,
			"byteLength":480,
			"byteOffset":97268,
			"target":34962
		},
		{
			"buffer":0,
			"byteLength":320,
			"byteOffset":97748,
			"target":34962
		},
		{
			"buffer":0,
			"byteLength":144,
			"byteOffset":98068,
			"target":34963
		},
		{
			"buffer":0,
			"byteLength":96,
			"byteOffset":98212,
			"target":34962
		},
		{
			"buffer":0,
			"byteLength":96,
			"byteOffset":98308,
			"target":34962
		},
		{
			"buffer":0,
			"byteLength":64,
			"byteOffset":98404,
			"target":34962
		},
		{
			"buffer":0,
			"byteLength":48,
			"byteOffset":98468,
			"target":34963
		},
		{
			"buffer":0,
			"byteLength":11124,
			"byteOffset":98516,
			"target":34962
		},
		{
			"buffer":0,
			"byteLength":11124,
			"byteOffset":109640,
			"target":34962
		},
		{
			"buffer":0,
			"byteLength":7416,
			"byteOffset":120764,
			"target":34962
		},
		{
			"buffer":0,
			"byteLength":10080,
			"byteOffset":128180,
			"target":34963
		},
		{
			"buffer":0,
			"byteLength":1644,
			"byteOffset":138260,
			"target":34962
		},
		{
			"buffer":0,
			"byteLength":1644,
			"byteOffset":139904,
			"target":34962
		},
		{
			"buffer":0,
			"byteLength":1096,
			"byteOffset":141548,
			"target":34962
		},
		{
			"buffer":0,
			"byteLength":552,
			"byteOffset":142644,
			"target":34963
		},
		{
			"buffer":0,
			"byteLength":896088,
			"byteOffset":143196,
			"target":34962
		},
		{
			"buffer":0,
			"byteLength":896088,
			"byteOffset":1039284,
			"target":34962
		},
		{
			"buffer":0,
			"byteLength":597392,
			"byteOffset":1935372,
			"target":34962
		},
		{
			"buffer":0,
			"byteLength":1789896,
			"byteOffset":2532764,
			"target":34963
		},
		{
			"buffer":0,
			"byteLength":960,
			"byteOffset":4322660,
			"target":34962
		},
		{
			"buffer":0,
			"byteLength":960,
			"byteOffset":4323620,
			"target":34962
		},
		{
			"buffer":0,
			"byteLength":640,
			"byteOffset":4324580,
			"target":34962
		},
		{
			"buffer":0,
			"byteLength":312,
			"byteOffset":4325220,
			"target":34963
		},
		{
			"buffer":0,
			"byteLength":2004,
			"byteOffset":4325532,
			"target":34962
		},
		{
			"buffer":0,
			"byteLength":2004,
			"byteOffset":4327536,
			"target":34962
		},
		{
			"buffer":0,
			"byteLength":1336,
			"byteOffset":4329540,
			"target":34962
		},
		{
			"buffer":0,
			"byteLength":948,
			"byteOffset":4330876,
			"target":34963
		},
		{
			"buffer":0,
			"byteLength":600,
			"byteOffset":4331824,
			"target":34962
		},
		{
			"buffer":0,
			"byteLength":600,
			"byteOffset":4332424,
			"target":34962
		},
		{
			"buffer":0,
			"byteLength":400,
			"byteOffset":4333024,
			"target":34962
		},
		{
			"buffer":0,
			"byteLength":264,
			"byteOffset":4333424,
			"target":34963
		},
		{
			"buffer":0,
			"byteLength":1080,
			"byteOffset":4333688,
			"target":34962
		},
		{
			"buffer":0,
			"byteLength":1080,
			"byteOffset":4334768,
			"target":34962
		},
		{
			"buffer":0,
			"byteLength":720,
			"byteOffset":4335848,
			"target":34962
		},
		{
			"buffer":0,
			"byteLength":252,
			"byteOffset":4336568,
			"target":34963
		},
		{
			"buffer":0,
			"byteLength":1080,
			"byteOffset":4336820,
			"target":34962
		},
		{
			"buffer":0,
			"byteLength":1080,
			"byteOffset":4337900,
			"target":34962
		},
		{
			"buffer":0,
			"byteLength":720,
			"byteOffset":4338980,
			"target":34962
		},
		{
			"buffer":0,
			"byteLength":252,
			"byteOffset":4339700,
			"target":34963
		},
		{
			"buffer":0,
			"byteLength":1200,
			"byteOffset":4339952,
			"target":34962
		},
		{
			"buffer":0,
			"byteLength":1200,
			"byteOffset":4341152,
			"target":34962
		},
		{
			"buffer":0,
			"byteLength":800,
			"byteOffset":4342352,
			"target":34962
		},
		{
			"buffer":0,
			"byteLength":840,
			"byteOffset":4343152,
			"target":34963
		},
		{
			"buffer":0,
			"byteLength":900,
			"byteOffset":4343992,
			"target":34962
		},
		{
			"buffer":0,
			"byteLength":900,
			"byteOffset":4344892,
			"target":34962
		},
		{
			"buffer":0,
			"byteLength":600,
			"byteOffset":4345792,
			"target":34962
		},
		{
			"buffer":0,
			"byteLength":552,
			"byteOffset":4346392,
			"target":34963
		},
		{
			"buffer":0,
			"byteLength":600,
			"byteOffset":4346944,
			"target":34962
		},
		{
			"buffer":0,
			"byteLength":600,
			"byteOffset":4347544,
			"target":34962
		},
		{
			"buffer":0,
			"byteLength":400,
			"byteOffset":4348144,
			"target":34962
		},
		{
			"buffer":0,
			"byteLength":2100,
			"byteOffset":4348544,
			"target":34962
		},
		{
			"buffer":0,
			"byteLength":2100,
			"byteOffset":4350644,
			"target":34962
		},
		{
			"buffer":0,
			"byteLength":1400,
			"byteOffset":4352744,
			"target":34962
		},
		{
			"buffer":0,
			"byteLength":984,
			"byteOffset":4354144,
			"target":34963
		},
		{
			"buffer":0,
			"byteLength":2448,
			"byteOffset":4355128,
			"target":34962
		},
		{
			"buffer":0,
			"byteLength":2448,
			"byteOffset":4357576,
			"target":34962
		},
		{
			"buffer":0,
			"byteLength":1632,
			"byteOffset":4360024,
			"target":34962
		},
		{
			"buffer":0,
			"byteLength":1236,
			"byteOffset":4361656,
			"target":34963
		},
		{
			"buffer":0,
			"byteLength":97728,
			"byteOffset":4362892,
			"target":34962
		},
		{
			"buffer":0,
			"byteLength":97728,
			"byteOffset":4460620,
			"target":34962
		},
		{
			"buffer":0,
			"byteLength":65152,
			"byteOffset":4558348,
			"target":34962
		},
		{
			"buffer":0,
			"byteLength":96930,
			"byteOffset":4623500,
			"target":34963
		},
		{
			"buffer":0,
			"byteLength":554112,
			"byteOffset":4720432,
			"target":34962
		},
		{
			"buffer":0,
			"byteLength":554112,
			"byteOffset":5274544,
			"target":34962
		},
		{
			"buffer":0,
			"byteLength":369408,
			"byteOffset":5828656,
			"target":34962
		},
		{
			"buffer":0,
			"byteLength":552960,
			"byteOffset":6198064,
			"target":34963
		},
		{
			"buffer":0,
			"byteLength":554112,
			"byteOffset":6751024,
			"target":34962
		},
		{
			"buffer":0,
			"byteLength":554112,
			"byteOffset":7305136,
			"target":34962
		},
		{
			"buffer":0,
			"byteLength":369408,
			"byteOffset":7859248,
			"target":34962
		},
		{
			"buffer":0,
			"byteLength":97728,
			"byteOffset":8228656,
			"target":34962
		},
		{
			"buffer":0,
			"byteLength":97728,
			"byteOffset":8326384,
			"target":34962
		},
		{
			"buffer":0,
			"byteLength":65152,
			"byteOffset":8424112,
			"target":34962
		},
		{
			"buffer":0,
			"byteLength":554112,
			"byteOffset":8489264,
			"target":34962
		},
		{
			"buffer":0,
			"byteLength":554112,
			"byteOffset":9043376,
			"target":34962
		},
		{
			"buffer":0,
			"byteLength":369408,
			"byteOffset":9597488,
			"target":34962
		},
		{
			"buffer":0,
			"byteLength":1008,
			"byteOffset":9966896,
			"target":34962
		},
		{
			"buffer":0,
			"byteLength":1008,
			"byteOffset":9967904,
			"target":34962
		},
		{
			"buffer":0,
			"byteLength":672,
			"byteOffset":9968912,
			"target":34962
		},
		{
			"buffer":0,
			"byteLength":456,
			"byteOffset":9969584,
			"target":34963
		},
		{
			"buffer":0,
			"byteLength":13656,
			"byteOffset":9970040,
			"target":34962
		},
		{
			"buffer":0,
			"byteLength":13656,
			"byteOffset":9983696,
			"target":34962
		},
		{
			"buffer":0,
			"byteLength":9104,
			"byteOffset":9997352,
			"target":34962
		},
		{
			"buffer":0,
			"byteLength":6912,
			"byteOffset":10006456,
			"target":34963
		},
		{
			"buffer":0,
			"byteLength":6336,
			"byteOffset":10013368,
			"target":34962
		},
		{
			"buffer":0,
			"byteLength":6336,
			"byteOffset":10019704,
			"target":34962
		},
		{
			"buffer":0,
			"byteLength":4224,
			"byteOffset":10026040,
			"target":34962
		},
		{
			"buffer":0,
			"byteLength":5760,
			"byteOffset":10030264,
			"target":34963
		},
		{
			"buffer":0,
			"byteLength":996,
			"byteOffset":10036024,
			"target":34962
		},
		{
			"buffer":0,
			"byteLength":996,
			"byteOffset":10037020,
			"target":34962
		},
		{
			"buffer":0,
			"byteLength":664,
			"byteOffset":10038016,
			"target":34962
		},
		{
			"buffer":0,
			"byteLength":456,
			"byteOffset":10038680,
			"target":34963
		},
		{
			"buffer":0,
			"byteLength":384,
			"byteOffset":10039136,
			"target":34962
		},
		{
			"buffer":0,
			"byteLength":384,
			"byteOffset":10039520,
			"target":34962
		},
		{
			"buffer":0,
			"byteLength":256,
			"byteOffset":10039904,
			"target":34962
		},
		{
			"buffer":0,
			"byteLength":120,
			"byteOffset":10040160,
			"target":34963
		},
		{
			"buffer":0,
			"byteLength":984,
			"byteOffset":10040280,
			"target":34962
		},
		{
			"buffer":0,
			"byteLength":984,
			"byteOffset":10041264,
			"target":34962
		},
		{
			"buffer":0,
			"byteLength":656,
			"byteOffset":10042248,
			"target":34962
		},
		{
			"buffer":0,
			"byteLength":276,
			"byteOffset":10042904,
			"target":34963
		},
		{
			"buffer":0,
			"byteLength":96,
			"byteOffset":10043180,
			"target":34962
		},
		{
			"buffer":0,
			"byteLength":96,
			"byteOffset":10043276,
			"target":34962
		},
		{
			"buffer":0,
			"byteLength":64,
			"byteOffset":10043372,
			"target":34962
		},
		{
			"buffer":0,
			"byteLength":36,
			"byteOffset":10043436,
			"target":34963
		},
		{
			"buffer":0,
			"byteLength":240,
			"byteOffset":10043472,
			"target":34962
		},
		{
			"buffer":0,
			"byteLength":240,
			"byteOffset":10043712,
			"target":34962
		},
		{
			"buffer":0,
			"byteLength":160,
			"byteOffset":10043952,
			"target":34962
		},
		{
			"buffer":0,
			"byteLength":60,
			"byteOffset":10044112,
			"target":34963
		},
		{
			"buffer":0,
			"byteLength":6036,
			"byteOffset":10044172,
			"target":34962
		},
		{
			"buffer":0,
			"byteLength":6036,
			"byteOffset":10050208,
			"target":34962
		},
		{
			"buffer":0,
			"byteLength":4024,
			"byteOffset":10056244,
			"target":34962
		},
		{
			"buffer":0,
			"byteLength":2028,
			"byteOffset":10060268,
			"target":34963
		},
		{
			"buffer":0,
			"byteLength":64800,
			"byteOffset":10062296,
			"target":34962
		},
		{
			"buffer":0,
			"byteLength":64800,
			"byteOffset":10127096,
			"target":34962
		},
		{
			"buffer":0,
			"byteLength":43200,
			"byteOffset":10191896,
			"target":34962
		},
		{
			"buffer":0,
			"byteLength":15120,
			"byteOffset":10235096,
			"target":34963
		},
		{
			"buffer":0,
			"byteLength":64800,
			"byteOffset":10250216,
			"target":34962
		},
		{
			"buffer":0,
			"byteLength":64800,
			"byteOffset":10315016,
			"target":34962
		},
		{
			"buffer":0,
			"byteLength":43200,
			"byteOffset":10379816,
			"target":34962
		},
		{
			"buffer":0,
			"byteLength":34560,
			"byteOffset":10423016,
			"target":34962
		},
		{
			"buffer":0,
			"byteLength":34560,
			"byteOffset":10457576,
			"target":34962
		},
		{
			"buffer":0,
			"byteLength":23040,
			"byteOffset":10492136,
			"target":34962
		},
		{
			"buffer":0,
			"byteLength":8064,
			"byteOffset":10515176,
			"target":34963
		},
		{
			"buffer":0,
			"byteLength":34560,
			"byteOffset":10523240,
			"target":34962
		},
		{
			"buffer":0,
			"byteLength":34560,
			"byteOffset":10557800,
			"target":34962
		},
		{
			"buffer":0,
			"byteLength":23040,
			"byteOffset":10592360,
			"target":34962
		},
		{
			"buffer":0,
			"byteLength":34560,
			"byteOffset":10615400,
			"target":34962
		},
		{
			"buffer":0,
			"byteLength":34560,
			"byteOffset":10649960,
			"target":34962
		},
		{
			"buffer":0,
			"byteLength":23040,
			"byteOffset":10684520,
			"target":34962
		},
		{
			"buffer":0,
			"byteLength":34560,
			"byteOffset":10707560,
			"target":34962
		},
		{
			"buffer":0,
			"byteLength":34560,
			"byteOffset":10742120,
			"target":34962
		},
		{
			"buffer":0,
			"byteLength":23040,
			"byteOffset":10776680,
			"target":34962
		},
		{
			"buffer":0,
			"byteLength":5112,
			"byteOffset":10799720,
			"target":34962
		},
		{
			"buffer":0,
			"byteLength":5112,
			"byteOffset":10804832,
			"target":34962
		},
		{
			"buffer":0,
			"byteLength":3408,
			"byteOffset":10809944,
			"target":34962
		},
		{
			"buffer":0,
			"byteLength":2028,
			"byteOffset":10813352,
			"target":34963
		},
		{
			"buffer":0,
			"byteLength":480,
			"byteOffset":10815380,
			"target":34962
		},
		{
			"buffer":0,
			"byteLength":480,
			"byteOffset":10815860,
			"target":34962
		},
		{
			"buffer":0,
			"byteLength":320,
			"byteOffset":10816340,
			"target":34962
		},
		{
			"buffer":0,
			"byteLength":168,
			"byteOffset":10816660,
			"target":34963
		},
		{
			"buffer":0,
			"byteLength":9228,
			"byteOffset":10816828,
			"target":34962
		},
		{
			"buffer":0,
			"byteLength":9228,
			"byteOffset":10826056,
			"target":34962
		},
		{
			"buffer":0,
			"byteLength":6152,
			"byteOffset":10835284,
			"target":34962
		},
		{
			"buffer":0,
			"byteLength":2448,
			"byteOffset":10841436,
			"target":34963
		},
		{
			"buffer":0,
			"byteLength":720,
			"byteOffset":10843884,
			"target":34962
		},
		{
			"buffer":0,
			"byteLength":720,
			"byteOffset":10844604,
			"target":34962
		},
		{
			"buffer":0,
			"byteLength":480,
			"byteOffset":10845324,
			"target":34962
		},
		{
			"buffer":0,
			"byteLength":276,
			"byteOffset":10845804,
			"target":34963
		},
		{
			"buffer":0,
			"byteLength":10656,
			"byteOffset":10846080,
			"target":34962
		},
		{
			"buffer":0,
			"byteLength":10656,
			"byteOffset":10856736,
			"target":34962
		},
		{
			"buffer":0,
			"byteLength":8400,
			"byteOffset":10867392,
			"target":34963
		},
		{
			"buffer":0,
			"byteLength":144,
			"byteOffset":10875792,
			"target":34962
		},
		{
			"buffer":0,
			"byteLength":144,
			"byteOffset":10875936,
			"target":34962
		},
		{
			"buffer":0,
			"byteLength":96,
			"byteOffset":10876080,
			"target":34962
		},
		{
			"buffer":0,
			"byteLength":60,
			"byteOffset":10876176,
			"target":34963
		},
		{
			"buffer":0,
			"byteLength":48,
			"byteOffset":10876236,
			"target":34962
		},
		{
			"buffer":0,
			"byteLength":48,
			"byteOffset":10876284,
			"target":34962
		},
		{
			"buffer":0,
			"byteLength":32,
			"byteOffset":10876332,
			"target":34962
		},
		{
			"buffer":0,
			"byteLength":12,
			"byteOffset":10876364,
			"target":34963
		},
		{
			"buffer":0,
			"byteLength":8,
			"byteOffset":10876376
		},
		{
			"buffer":0,
			"byteLength":24,
			"byteOffset":10876384
		},
		{
			"buffer":0,
			"byteLength":52,
			"byteOffset":10876408
		},
		{
			"buffer":0,
			"byteLength":208,
			"byteOffset":10876460
		},
		{
			"buffer":0,
			"byteLength":156,
			"byteOffset":10876668
		}
	],
	"samplers":[
		{
			"magFilter":9729,
			"minFilter":9987
		}
	],
	"buffers":[
		{
			"byteLength":10876824,
			"uri":"BoatTEXTURED.bin"
		}
	]
}
